<?xml version="1.0" standalone="no"?>
<!DOCTYPE svg PUBLIC "-//W3C//DTD SVG 1.1//EN" "http://www.w3.org/Graphics/SVG/1.1/DTD/svg11.dtd" >
<svg xmlns="http://www.w3.org/2000/svg" xmlns:xlink="http://www.w3.org/1999/xlink" version="1.1">
<metadata>
Created by FontForge 20230101 at Sun May 14 10:56:38 2023
 By Wisniewski Camille
</metadata>
<defs>
<font id="IOTA-SingleLine-Regular" horiz-adv-x="585" >
  <font-face 
    font-family="IOTA-SingleLine"
    font-weight="400"
    font-stretch="normal"
    units-per-em="1000"
    panose-1="2 0 5 3 0 0 0 0 0 0"
    ascent="800"
    descent="-200"
    x-height="500"
    cap-height="700"
    bbox="-34 -296.43 1360 899"
    underline-thickness="0"
    underline-position="0"
    unicode-range="U+0020-25CA"
  />
    <missing-glyph />
    <glyph glyph-name="A" unicode="A" horiz-adv-x="630" 
d="M35 0c21 21 43 42 56 70c61 133 -9 280 14 420c19 118 98 210 210 210c105 0 193 -90 210 -210c20 -140 -53 -287 14 -420c13 -26 28 -49 56 -70M112 280h403" />
    <glyph glyph-name="AE" unicode="&#xc6;" horiz-adv-x="912" 
d="M35 0c21 21 43 42 56 70c61 133 -20 280 14 420c29 117 126 210 245 210h140h280c42 0 84 -21 105 -70M490 700v-700h280c43 0 84 35 105 70M105 280h385M490 350h315" />
    <glyph glyph-name="Aacute" unicode="&#xc1;" horiz-adv-x="630" 
d="M35 0c21 21 43 42 56 70c61 133 -9 280 14 420c19 118 98 210 210 210c105 0 193 -90 210 -210c20 -140 -53 -287 14 -420c13 -26 28 -49 56 -70M112 280h403M296 878h36c14 -64 -43 -114 -107 -107" />
    <glyph glyph-name="Abreve" unicode="&#x102;" horiz-adv-x="630" 
d="M35 0c21 21 43 42 56 70c61 133 -9 280 14 420c19 118 98 210 210 210c105 0 193 -90 210 -210c20 -140 -53 -287 14 -420c13 -26 28 -49 56 -70M112 280h403M181 878c0 -57 50 -108 107 -108s107 51 107 108" />
    <glyph glyph-name="Acircumflex" unicode="&#xc2;" horiz-adv-x="630" 
d="M35 0c21 21 43 42 56 70c61 133 -9 280 14 420c19 118 98 210 210 210c105 0 193 -90 210 -210c20 -140 -53 -287 14 -420c13 -26 28 -49 56 -70M112 280h403M190 770l107 107c7 -50 50 -93 107 -107" />
    <glyph glyph-name="Adieresis" unicode="&#xc4;" horiz-adv-x="630" 
d="M35 0c21 21 43 42 56 70c61 133 -9 280 14 420c19 118 98 210 210 210c105 0 193 -90 210 -210c20 -140 -53 -287 14 -420c13 -26 28 -49 56 -70M112 280h403M165 868h71c7 -36 -7 -79 -35 -108M343 868h72c7 -36 -7 -79 -36 -108" />
    <glyph glyph-name="Agrave" unicode="&#xc0;" horiz-adv-x="630" 
d="M35 0c21 21 43 42 56 70c61 133 -9 280 14 420c19 118 98 210 210 210c105 0 193 -90 210 -210c20 -140 -53 -287 14 -420c13 -26 28 -49 56 -70M112 280h403M349 761c-64 -7 -121 43 -107 107h36" />
    <glyph glyph-name="Amacron" unicode="&#x100;" horiz-adv-x="630" 
d="M35 0c21 21 43 42 56 70c61 133 -9 280 14 420c19 118 98 210 210 210c105 0 193 -90 210 -210c20 -140 -53 -287 14 -420c13 -26 28 -49 56 -70M112 280h403M187 810h214" />
    <glyph glyph-name="Aogonek" unicode="&#x104;" horiz-adv-x="630" 
d="M35 0c21 21 43 42 56 70c61 133 -9 280 14 420c19 118 98 210 210 210c105 0 193 -90 210 -210c20 -140 -53 -287 14 -420c13 -26 28 -49 56 -70M112 280h403M575 0c-36 -30 -62 -63 -72 -109c-9 -43 -2 -87 36 -107c57 -30 115 15 109 72" />
    <glyph glyph-name="Aring" unicode="&#xc5;" horiz-adv-x="630" 
d="M35 0c21 21 43 42 56 70c61 133 -9 280 14 420c19 118 98 210 210 210c105 0 193 -90 210 -210c20 -140 -53 -287 14 -420c13 -26 28 -49 56 -70M112 280h403M294 878c-29 0 -54 -25 -54 -54s25 -54 54 -54s54 25 54 54s-25 54 -54 54" />
    <glyph glyph-name="Atilde" unicode="&#xc3;" horiz-adv-x="630" 
d="M35 0c21 21 43 42 56 70c61 133 -9 280 14 420c19 118 98 210 210 210c105 0 193 -90 210 -210c20 -140 -53 -287 14 -420c13 -26 28 -49 56 -70M112 280h403M185 780c0 43 36 71 71 57c29 -14 43 -47 72 -57c34 -12 71 21 71 57" />
    <glyph glyph-name="B" unicode="B" horiz-adv-x="582" 
d="M55 700c42 0 70 -35 70 -69v-561c-7 -34 -35 -63 -70 -70M125 631c36 38 91 65 140 69c112 10 218 -56 224 -161c5 -90 -63 -154 -154 -154h-210h210c112 0 205 -77 210 -175c6 -112 -82 -196 -196 -210c-77 -9 -161 14 -224 70" />
    <glyph glyph-name="C" unicode="C" horiz-adv-x="587" 
d="M550 630c-56 56 -133 78 -210 70c-166 -17 -280 -175 -280 -350c0 -168 112 -335 280 -350c77 -7 154 21 210 70" />
    <glyph glyph-name="Cacute" unicode="&#x106;" horiz-adv-x="587" 
d="M550 630c-56 56 -133 78 -210 70c-166 -17 -280 -175 -280 -350c0 -168 112 -335 280 -350c77 -7 154 21 210 70M326 878h36c14 -64 -43 -114 -107 -107" />
    <glyph glyph-name="Ccaron" unicode="&#x10c;" horiz-adv-x="587" 
d="M550 630c-56 56 -133 78 -210 70c-166 -17 -280 -175 -280 -350c0 -168 112 -335 280 -350c77 -7 154 21 210 70M449 877c-57 -14 -100 -57 -107 -107l-107 107" />
    <glyph glyph-name="Ccedilla" unicode="&#xc7;" horiz-adv-x="587" 
d="M550 630c-56 56 -133 78 -210 70c-166 -17 -280 -175 -280 -350c0 -168 112 -335 280 -350c77 -7 154 21 210 70M320 0l-37 -72c27 11 51 11 73 0c25 -13 39 -43 35 -72c-6 -48 -57 -81 -108 -71" />
    <glyph glyph-name="Cdotaccent" unicode="&#x10a;" horiz-adv-x="587" 
d="M550 630c-56 56 -133 78 -210 70c-166 -17 -280 -175 -280 -350c0 -168 112 -335 280 -350c77 -7 154 21 210 70M290 868h72c7 -36 -7 -79 -36 -108" />
    <glyph glyph-name="D" unicode="D" horiz-adv-x="674" 
d="M55 700c35 -28 60 -63 70 -105v-490c0 -49 -28 -83 -70 -105M125 595c56 77 154 119 245 105c154 -23 244 -189 244 -349c0 -169 -91 -327 -244 -351c-91 -14 -189 22 -245 105" />
    <glyph glyph-name="Dcaron" unicode="&#x10e;" horiz-adv-x="674" 
d="M55 700c35 -28 60 -63 70 -105v-490c0 -49 -28 -83 -70 -105M125 595c56 77 154 119 245 105c154 -23 244 -189 244 -349c0 -169 -91 -327 -244 -351c-91 -14 -189 22 -245 105M409 877c-57 -14 -100 -57 -107 -107l-107 107" />
    <glyph glyph-name="Dcroat" unicode="&#x110;" horiz-adv-x="674" 
d="M55 700c35 -28 60 -63 70 -105v-490c0 -49 -28 -83 -70 -105M125 595c56 77 154 119 245 105c154 -23 244 -189 244 -349c0 -169 -91 -327 -244 -351c-91 -14 -189 22 -245 105M35 344h214" />
    <glyph glyph-name="E" unicode="E" horiz-adv-x="492" 
d="M455 630c-14 49 -56 70 -105 70h-315v-700h315c49 0 91 28 105 70M35 350h350" />
    <glyph glyph-name="Eacute" unicode="&#xc9;" horiz-adv-x="492" 
d="M455 630c-14 49 -56 70 -105 70h-315v-700h315c49 0 91 28 105 70M35 350h350M241 877h36c14 -64 -43 -114 -107 -107" />
    <glyph glyph-name="Ecaron" unicode="&#x11a;" horiz-adv-x="492" 
d="M455 630c-14 49 -56 70 -105 70h-315v-700h315c49 0 91 28 105 70M35 350h350M339 877c-57 -14 -100 -57 -107 -107l-107 107" />
    <glyph glyph-name="Ecircumflex" unicode="&#xca;" horiz-adv-x="492" 
d="M455 630c-14 49 -56 70 -105 70h-315v-700h315c49 0 91 28 105 70M35 350h350M125 770l107 107c7 -50 50 -93 107 -107" />
    <glyph glyph-name="Edieresis" unicode="&#xcb;" horiz-adv-x="492" 
d="M455 630c-14 49 -56 70 -105 70h-315v-700h315c49 0 91 28 105 70M35 350h350M100 868h71c7 -36 -7 -79 -35 -108M278 868h72c7 -36 -7 -79 -36 -108" />
    <glyph glyph-name="Edotaccent" unicode="&#x116;" horiz-adv-x="492" 
d="M455 630c-14 49 -56 70 -105 70h-315v-700h315c49 0 91 28 105 70M35 350h350M175 868h72c7 -36 -7 -79 -36 -108" />
    <glyph glyph-name="Egrave" unicode="&#xc8;" horiz-adv-x="492" 
d="M455 630c-14 49 -56 70 -105 70h-315v-700h315c49 0 91 28 105 70M35 350h350M274 760c-64 -7 -121 43 -107 107h36" />
    <glyph glyph-name="Emacron" unicode="&#x112;" horiz-adv-x="492" 
d="M455 630c-14 49 -56 70 -105 70h-315v-700h315c49 0 91 28 105 70M35 350h350M125 810h214" />
    <glyph glyph-name="Eng" unicode="&#x14a;" horiz-adv-x="610" 
d="M30 0v700c56 -7 104 -36 140 -70c152 -147 93 -413 245 -560c43 -41 91 -63 140 -70v700M555 0c-14 -210 -224 -343 -420 -280" />
    <glyph glyph-name="Eogonek" unicode="&#x118;" horiz-adv-x="492" 
d="M455 630c-14 49 -56 70 -105 70h-315v-700h315c49 0 91 28 105 70M35 350h350M231 0c-36 -30 -62 -63 -72 -109c-9 -43 -2 -87 36 -107c57 -30 115 15 109 72" />
    <glyph glyph-name="F" unicode="F" horiz-adv-x="477" 
d="M440 630c-14 42 -57 70 -105 70h-280v-700M55 350h315" />
    <glyph glyph-name="G" unicode="G" horiz-adv-x="635" 
d="M550 630c-56 56 -133 76 -210 70c-166 -13 -280 -175 -280 -350c0 -189 140 -350 315 -350c91 0 175 63 210 140v210h-210" />
    <glyph glyph-name="Gbreve" unicode="&#x11e;" horiz-adv-x="635" 
d="M550 630c-56 56 -133 76 -210 70c-166 -13 -280 -175 -280 -350c0 -189 140 -350 315 -350c91 0 175 63 210 140v210h-210M205 878c0 -57 50 -108 107 -108s107 51 107 108" />
    <glyph glyph-name="Gcommaaccent" unicode="&#x122;" horiz-adv-x="635" 
d="M550 630c-56 56 -133 76 -210 70c-166 -13 -280 -175 -280 -350c0 -189 140 -350 315 -350c91 0 175 63 210 140v210h-210M290 -91h72c7 -57 -7 -107 -36 -143" />
    <glyph glyph-name="Gdotaccent" unicode="&#x120;" horiz-adv-x="635" 
d="M550 630c-56 56 -133 76 -210 70c-166 -13 -280 -175 -280 -350c0 -189 140 -350 315 -350c91 0 175 63 210 140v210h-210M280 868h72c7 -36 -7 -79 -36 -108" />
    <glyph glyph-name="Germandbls" unicode="&#x1e9e;" horiz-adv-x="551" 
d="M125 0c-42 14 -70 63 -70 105v385c0 114 105 200 210 210c78 7 161 -14 210 -70l-210 -210c119 14 221 -57 245 -175c24 -119 -56 -245 -175 -245c-56 0 -105 28 -140 70" />
    <glyph glyph-name="H" unicode="H" horiz-adv-x="740" 
d="M55 700c35 -35 58 -85 70 -140c34 -161 -48 -336 21 -490c10 -23 28 -49 49 -70M545 700c35 -35 58 -85 70 -140c34 -161 -48 -336 21 -490c10 -23 28 -49 49 -70M125 350h490" />
    <glyph glyph-name="Hbar" unicode="&#x126;" horiz-adv-x="740" 
d="M55 500h630M75 700c35 -35 58 -85 70 -140c34 -161 -48 -336 21 -490c10 -23 28 -49 49 -70M565 700c35 -35 58 -85 70 -140c34 -161 -48 -336 21 -490c10 -23 28 -49 49 -70M145 350h490" />
    <glyph glyph-name="I" unicode="I" horiz-adv-x="390" 
d="M55 700h140c35 -35 59 -85 70 -140c31 -161 -62 -336 14 -490c11 -23 35 -49 56 -70h-245" />
    <glyph glyph-name="Iacute" unicode="&#xcd;" horiz-adv-x="390" 
d="M55 700h140c35 -35 59 -85 70 -140c31 -161 -62 -336 14 -490c11 -23 35 -49 56 -70h-245M171 877h36c14 -64 -43 -114 -107 -107" />
    <glyph glyph-name="Icircumflex" unicode="&#xce;" horiz-adv-x="390" 
d="M55 700h140c35 -35 59 -85 70 -140c31 -161 -62 -336 14 -490c11 -23 35 -49 56 -70h-245M60 770l107 107c7 -50 50 -93 107 -107" />
    <glyph glyph-name="Idieresis" unicode="&#xcf;" horiz-adv-x="390" 
d="M55 700h140c35 -35 59 -85 70 -140c31 -161 -62 -336 14 -490c11 -23 35 -49 56 -70h-245M50 868h71c7 -36 -7 -79 -35 -108M228 868h72c7 -36 -7 -79 -36 -108" />
    <glyph glyph-name="Idotaccent" unicode="&#x130;" horiz-adv-x="390" 
d="M55 700h140c35 -35 59 -85 70 -140c31 -161 -62 -336 14 -490c11 -23 35 -49 56 -70h-245M105 868h72c7 -36 -7 -79 -36 -108" />
    <glyph glyph-name="Igrave" unicode="&#xcc;" horiz-adv-x="390" 
d="M55 700h140c35 -35 59 -85 70 -140c31 -161 -62 -336 14 -490c11 -23 35 -49 56 -70h-245M204 761c-64 -7 -121 43 -107 107h36" />
    <glyph glyph-name="Imacron" unicode="&#x12a;" horiz-adv-x="390" 
d="M55 700h140c35 -35 59 -85 70 -140c31 -161 -62 -336 14 -490c11 -23 35 -49 56 -70h-245M55 810h214" />
    <glyph glyph-name="Iogonek" unicode="&#x12e;" horiz-adv-x="390" 
d="M55 700h140c35 -35 59 -85 70 -140c31 -161 -62 -336 14 -490c11 -23 35 -49 56 -70h-245M196 0c-36 -30 -62 -63 -72 -109c-9 -43 -2 -87 36 -107c57 -30 115 15 109 72" />
    <glyph glyph-name="J" unicode="J" horiz-adv-x="514" 
d="M35 700h424v-636c0 -227 -205 -396 -424 -354" />
    <glyph glyph-name="K" unicode="K" horiz-adv-x="636" 
d="M55 700c35 -35 59 -85 70 -140c33 -161 -62 -336 14 -490c11 -23 35 -49 56 -70M116 315c196 56 359 196 429 385M292 394l309 -394" />
    <glyph glyph-name="Kcommaaccent" unicode="&#x136;" horiz-adv-x="636" 
d="M55 700c35 -35 59 -85 70 -140c33 -161 -62 -336 14 -490c11 -23 35 -49 56 -70M116 315c196 56 359 196 429 385M292 394l309 -394M270 -91h72c7 -57 -7 -107 -36 -143" />
    <glyph glyph-name="L" unicode="L" horiz-adv-x="580" 
d="M55 700c49 -28 70 -84 70 -140v-560h350c42 0 70 35 70 70" />
    <glyph glyph-name="Lacute" unicode="&#x139;" horiz-adv-x="580" 
d="M55 700c49 -28 70 -84 70 -140v-560h350c42 0 70 35 70 70M156 877h36c14 -64 -43 -114 -107 -107" />
    <glyph glyph-name="Lcaron" unicode="&#x13d;" horiz-adv-x="580" 
d="M55 700c49 -28 70 -84 70 -140v-560h350c42 0 70 35 70 70M224 877c-57 -14 -100 -57 -107 -107l-107 107" />
    <glyph glyph-name="Lcommaaccent" unicode="&#x13b;" horiz-adv-x="580" 
d="M55 700c49 -28 70 -84 70 -140v-560h350c42 0 70 35 70 70M240 -91h72c7 -57 -7 -107 -36 -143" />
    <glyph glyph-name="Lslash" unicode="&#x141;" horiz-adv-x="560" 
d="M55 700c49 -28 70 -84 70 -140v-560h350c42 0 70 35 70 70M55 280l245 105" />
    <glyph glyph-name="M" unicode="M" horiz-adv-x="785" 
d="M30 700c56 7 112 -23 140 -70l210 -350l210 350c31 52 84 77 140 70M100 690v-585c0 -42 28 -84 70 -105M660 691v-586c0 -42 28 -84 70 -105" />
    <glyph glyph-name="N" unicode="N" 
d="M30 0v700c56 -7 101 -32 140 -70c153 -147 92 -413 245 -560c39 -38 91 -56 140 -70v700" />
    <glyph glyph-name="Nacute" unicode="&#x143;" 
d="M30 0v700c56 -7 101 -32 140 -70c153 -147 92 -413 245 -560c39 -38 91 -56 140 -70v700M311 877h36c14 -64 -43 -114 -107 -107" />
    <glyph glyph-name="Ncaron" unicode="&#x147;" 
d="M30 0v700c56 -7 101 -32 140 -70c153 -147 92 -413 245 -560c39 -38 91 -56 140 -70v700M404 877c-57 -14 -100 -57 -107 -107l-107 107" />
    <glyph glyph-name="Ncommaaccent" unicode="&#x145;" 
d="M30 0v700c56 -7 101 -32 140 -70c153 -147 92 -413 245 -560c39 -38 91 -56 140 -70v700M250 -91h72c7 -57 -7 -107 -36 -143" />
    <glyph glyph-name="Ntilde" unicode="&#xd1;" 
d="M30 0v700c56 -7 101 -32 140 -70c153 -147 92 -413 245 -560c39 -38 91 -56 140 -70v700M190 779c0 43 36 71 71 57c29 -14 43 -47 72 -57c34 -12 71 21 71 57" />
    <glyph glyph-name="O" unicode="O" horiz-adv-x="680" 
d="M340 700c-168 0 -280 -168 -280 -350s112 -350 280 -350s280 168 280 350s-112 350 -280 350" />
    <glyph glyph-name="OE" unicode="&#x152;" horiz-adv-x="1077" 
d="M340 700c-168 0 -280 -168 -280 -350s112 -350 280 -350s280 168 280 350s-112 350 -280 350M1040 630c-14 49 -56 70 -105 70h-315v-700h315c49 0 91 28 105 70M620 350h350" />
    <glyph glyph-name="Oacute" unicode="&#xd3;" horiz-adv-x="680" 
d="M340 700c-168 0 -280 -168 -280 -350s112 -350 280 -350s280 168 280 350s-112 350 -280 350M331 877h36c14 -64 -43 -114 -107 -107" />
    <glyph glyph-name="Ocircumflex" unicode="&#xd4;" horiz-adv-x="680" 
d="M340 700c-168 0 -280 -168 -280 -350s112 -350 280 -350s280 168 280 350s-112 350 -280 350M210 770l107 107c7 -50 50 -93 107 -107" />
    <glyph glyph-name="Odieresis" unicode="&#xd6;" horiz-adv-x="680" 
d="M340 700c-168 0 -280 -168 -280 -350s112 -350 280 -350s280 168 280 350s-112 350 -280 350M190 868h71c7 -36 -7 -79 -35 -108M368 868h72c7 -36 -7 -79 -36 -108" />
    <glyph glyph-name="Ograve" unicode="&#xd2;" horiz-adv-x="680" 
d="M340 700c-168 0 -280 -168 -280 -350s112 -350 280 -350s280 168 280 350s-112 350 -280 350M369 760c-64 -7 -121 43 -107 107h36" />
    <glyph glyph-name="Ohungarumlaut" unicode="&#x150;" horiz-adv-x="680" 
d="M340 700c-168 0 -280 -168 -280 -350s112 -350 280 -350s280 168 280 350s-112 350 -280 350M271 877h36c14 -64 -43 -114 -107 -107M401 877h36c14 -64 -43 -114 -107 -107" />
    <glyph glyph-name="Omacron" unicode="&#x14c;" horiz-adv-x="680" 
d="M340 700c-168 0 -280 -168 -280 -350s112 -350 280 -350s280 168 280 350s-112 350 -280 350M215 810h214" />
    <glyph glyph-name="Oslash" unicode="&#xd8;" horiz-adv-x="640" 
d="M340 700c-168 0 -280 -168 -280 -350s112 -350 280 -350s280 168 280 350s-112 350 -280 350M408 840l-198 -990" />
    <glyph glyph-name="Otilde" unicode="&#xd5;" horiz-adv-x="680" 
d="M340 700c-168 0 -280 -168 -280 -350s112 -350 280 -350s280 168 280 350s-112 350 -280 350M210 780c0 43 36 71 71 57c29 -14 43 -47 72 -57c34 -12 71 21 71 57" />
    <glyph glyph-name="P" unicode="P" horiz-adv-x="605" 
d="M125 0c-42 21 -70 63 -70 105v595h245c126 0 243 -77 245 -196c2 -133 -134 -224 -280 -224c-77 0 -147 28 -210 70" />
    <glyph glyph-name="Q" unicode="Q" horiz-adv-x="763" 
d="M346 707c-172 0 -286 -171 -286 -357s114 -357 286 -357c171 0 285 171 285 357s-114 357 -285 357M417 207c93 -14 129 -94 143 -178c16 -93 57 -172 143 -179" />
    <glyph glyph-name="R" unicode="R" horiz-adv-x="580" 
d="M125 0c-42 21 -70 63 -70 105v595h245c126 0 245 -77 245 -196c0 -133 -133 -224 -280 -224c-77 0 -147 28 -210 70M265 280c49 -126 154 -231 280 -280" />
    <glyph glyph-name="Racute" unicode="&#x154;" horiz-adv-x="580" 
d="M125 0c-42 21 -70 63 -70 105v595h245c126 0 245 -77 245 -196c0 -133 -133 -224 -280 -224c-77 0 -147 28 -210 70M265 280c49 -126 154 -231 280 -280M266 877h36c14 -64 -43 -114 -107 -107" />
    <glyph glyph-name="Rcaron" unicode="&#x158;" horiz-adv-x="560" 
d="M125 0c-42 21 -70 63 -70 105v595h245c126 0 245 -77 245 -196c0 -133 -133 -224 -280 -224c-77 0 -147 28 -210 70M265 280c49 -126 154 -231 280 -280M364 877c-57 -14 -100 -57 -107 -107l-107 107" />
    <glyph glyph-name="Rcommaaccent" unicode="&#x156;" horiz-adv-x="560" 
d="M125 0c-42 21 -70 63 -70 105v595h245c126 0 245 -77 245 -196c0 -133 -133 -224 -280 -224c-77 0 -147 28 -210 70M265 280c49 -126 154 -231 280 -280M220 -91h72c7 -57 -7 -107 -36 -143" />
    <glyph glyph-name="S" unicode="S" horiz-adv-x="677" 
d="M601 602c-78 63 -177 106 -283 106c-134 0 -262 -78 -247 -199c13 -106 133 -142 247 -155c141 -16 305 -28 318 -162c13 -136 -141 -225 -318 -192c-107 20 -198 72 -283 142" />
    <glyph glyph-name="Sacute" unicode="&#x15a;" horiz-adv-x="677" 
d="M601 602c-78 63 -177 106 -283 106c-134 0 -262 -78 -247 -199c13 -106 133 -142 247 -155c141 -16 305 -28 318 -162c13 -136 -141 -225 -318 -192c-107 20 -198 72 -283 142M346 877h36c14 -64 -43 -114 -107 -107" />
    <glyph glyph-name="Scaron" unicode="&#x160;" horiz-adv-x="677" 
d="M601 602c-78 63 -177 106 -283 106c-134 0 -262 -78 -247 -199c13 -106 133 -142 247 -155c141 -16 305 -28 318 -162c13 -136 -141 -225 -318 -192c-107 20 -198 72 -283 142M444 877c-57 -14 -100 -57 -107 -107l-107 107" />
    <glyph glyph-name="Scedilla" unicode="&#x15e;" horiz-adv-x="677" 
d="M601 602c-78 63 -177 106 -283 106c-134 0 -262 -78 -247 -199c13 -106 133 -142 247 -155c141 -16 305 -28 318 -162c13 -136 -141 -225 -318 -192c-107 20 -198 72 -283 142M357 -5l-37 -72c27 11 51 11 73 0c25 -13 39 -43 35 -72c-6 -48 -57 -81 -108 -71" />
    <glyph glyph-name="Scommaaccent" unicode="&#x218;" horiz-adv-x="677" 
d="M601 602c-78 63 -177 106 -283 106c-134 0 -262 -78 -247 -199c13 -106 133 -142 247 -155c141 -16 305 -28 318 -162c13 -136 -141 -225 -318 -192c-107 20 -198 72 -283 142M300 -91h72c7 -57 -7 -107 -36 -143" />
    <glyph glyph-name="T" unicode="T" horiz-adv-x="630" 
d="M35 630c21 42 56 70 105 70h175h175c42 0 91 -28 105 -70M315 700v-700" />
    <glyph glyph-name="Tbar" unicode="&#x166;" horiz-adv-x="590" 
d="M115 385h385M35 630c21 42 56 70 105 70h175h175c42 0 91 -28 105 -70M315 700v-700" />
    <glyph glyph-name="Tcaron" unicode="&#x164;" horiz-adv-x="630" 
d="M35 630c21 42 56 70 105 70h175h175c42 0 91 -28 105 -70M315 700v-700M409 899c-57 -14 -100 -57 -107 -107l-107 107" />
    <glyph glyph-name="Tcedilla" unicode="&#x162;" horiz-adv-x="630" 
d="M35 630c21 42 56 70 105 70h175h175c42 0 91 -28 105 -70M315 700v-700M295 0l-37 -72c27 11 51 11 73 0c25 -13 39 -43 35 -72c-6 -48 -57 -81 -108 -71" />
    <glyph glyph-name="Tcommaaccent" unicode="&#x21a;" horiz-adv-x="630" 
d="M35 630c21 42 56 70 105 70h175h175c42 0 91 -28 105 -70M315 700v-700M260 -91h72c7 -57 -7 -107 -36 -143" />
    <glyph glyph-name="Thorn" unicode="&#xde;" horiz-adv-x="605" 
d="M55 700v-595c0 -42 28 -84 70 -105M55 560h245c126 0 245 -77 245 -196c0 -133 -133 -224 -280 -224c-77 0 -147 28 -210 70" />
    <glyph glyph-name="U" unicode="U" horiz-adv-x="735" 
d="M55 700c35 -35 58 -85 70 -140c25 -112 -14 -232 14 -350c28 -119 140 -210 266 -210c154 0 280 126 280 280v210c0 77 -14 154 -70 210" />
    <glyph glyph-name="Uacute" unicode="&#xda;" horiz-adv-x="735" 
d="M55 700c35 -35 58 -85 70 -140c25 -112 -14 -232 14 -350c28 -119 140 -210 266 -210c154 0 280 126 280 280v210c0 77 -14 154 -70 210M356 877h36c14 -64 -43 -114 -107 -107" />
    <glyph glyph-name="Ucircumflex" unicode="&#xdb;" horiz-adv-x="735" 
d="M55 700c35 -35 58 -85 70 -140c25 -112 -14 -232 14 -350c28 -119 140 -210 266 -210c154 0 280 126 280 280v210c0 77 -14 154 -70 210M240 770l107 107c7 -50 50 -93 107 -107" />
    <glyph glyph-name="Udieresis" unicode="&#xdc;" horiz-adv-x="735" 
d="M55 700c35 -35 58 -85 70 -140c25 -112 -14 -232 14 -350c28 -119 140 -210 266 -210c154 0 280 126 280 280v210c0 77 -14 154 -70 210M210 868h71c7 -36 -7 -79 -35 -108M388 868h72c7 -36 -7 -79 -36 -108" />
    <glyph glyph-name="Ugrave" unicode="&#xd9;" horiz-adv-x="735" 
d="M55 700c35 -35 58 -85 70 -140c25 -112 -14 -232 14 -350c28 -119 140 -210 266 -210c154 0 280 126 280 280v210c0 77 -14 154 -70 210M399 760c-64 -7 -121 43 -107 107h36" />
    <glyph glyph-name="Uhungarumlaut" unicode="&#x170;" horiz-adv-x="735" 
d="M55 700c35 -35 58 -85 70 -140c25 -112 -14 -232 14 -350c28 -119 140 -210 266 -210c154 0 280 126 280 280v210c0 77 -14 154 -70 210M291 877h36c14 -64 -43 -114 -107 -107M421 877h36c14 -64 -43 -114 -107 -107" />
    <glyph glyph-name="Umacron" unicode="&#x16a;" horiz-adv-x="735" 
d="M55 700c35 -35 58 -85 70 -140c25 -112 -14 -232 14 -350c28 -119 140 -210 266 -210c154 0 280 126 280 280v210c0 77 -14 154 -70 210M235 810h214" />
    <glyph glyph-name="Uogonek" unicode="&#x172;" horiz-adv-x="735" 
d="M55 700c35 -35 58 -85 70 -140c25 -112 -14 -232 14 -350c28 -119 140 -210 266 -210c154 0 280 126 280 280v210c0 77 -14 154 -70 210M376 0c-36 -30 -62 -63 -72 -109c-9 -43 -2 -87 36 -107c57 -30 115 15 109 72" />
    <glyph glyph-name="Uring" unicode="&#x16e;" horiz-adv-x="735" 
d="M55 700c35 -35 58 -85 70 -140c25 -112 -14 -232 14 -350c28 -119 140 -210 266 -210c154 0 280 126 280 280v210c0 77 -14 154 -70 210M344 878c-29 0 -54 -25 -54 -54s25 -54 54 -54s54 25 54 54s-25 54 -54 54" />
    <glyph glyph-name="V" unicode="V" horiz-adv-x="630" 
d="M35 700l175 -700c105 0 195 57 245 140c76 126 36 287 70 420c14 56 42 98 70 140" />
    <glyph glyph-name="W" unicode="W" horiz-adv-x="945" 
d="M35 700l210 -700c91 14 166 84 175 175c10 98 28 189 63 280M420 700l175 -700c77 21 142 76 175 140c69 133 29 287 70 420c17 55 35 98 70 140" />
    <glyph glyph-name="Wacute" unicode="&#x1e82;" horiz-adv-x="945" 
d="M35 700l210 -700c91 14 166 84 175 175c10 98 28 189 63 280M420 700l175 -700c77 21 142 76 175 140c69 133 29 287 70 420c17 55 35 98 70 140M431 877h36c14 -64 -43 -114 -107 -107" />
    <glyph glyph-name="Wcircumflex" unicode="&#x174;" horiz-adv-x="945" 
d="M35 700l210 -700c91 14 166 84 175 175c10 98 28 189 63 280M420 700l175 -700c77 21 142 76 175 140c69 133 29 287 70 420c17 55 35 98 70 140M325 770l107 107c7 -50 50 -93 107 -107" />
    <glyph glyph-name="Wdieresis" unicode="&#x1e84;" horiz-adv-x="945" 
d="M35 700l210 -700c91 14 166 84 175 175c10 98 28 189 63 280M420 700l175 -700c77 21 142 76 175 140c69 133 29 287 70 420c17 55 35 98 70 140M290 868h71c7 -36 -7 -79 -35 -108M468 868h72c7 -36 -7 -79 -36 -108" />
    <glyph glyph-name="Wgrave" unicode="&#x1e80;" horiz-adv-x="945" 
d="M35 700l210 -700c91 14 166 84 175 175c10 98 28 189 63 280M420 700l175 -700c77 21 142 76 175 140c69 133 29 287 70 420c17 55 35 98 70 140M474 760c-64 -7 -121 43 -107 107h36" />
    <glyph glyph-name="X" unicode="X" horiz-adv-x="640" 
d="M40 700c147 -56 252 -189 280 -350c27 -154 133 -287 280 -350M600 700c-161 -35 -280 -182 -280 -350s-112 -308 -280 -350" />
    <glyph glyph-name="Y" unicode="Y" horiz-adv-x="560" 
d="M35 700c35 -35 59 -83 70 -140c13 -70 1 -140 21 -210c22 -77 77 -140 154 -140s139 62 154 140c13 70 8 140 21 210c10 55 35 105 70 140M280 210v-210" />
    <glyph glyph-name="Yacute" unicode="&#xdd;" horiz-adv-x="560" 
d="M35 700c35 -35 59 -83 70 -140c13 -70 1 -140 21 -210c22 -77 77 -140 154 -140s139 62 154 140c13 70 8 140 21 210c10 55 35 105 70 140M280 210v-210M266 877h36c14 -64 -43 -114 -107 -107" />
    <glyph glyph-name="Ycircumflex" unicode="&#x176;" horiz-adv-x="560" 
d="M35 700c35 -35 59 -83 70 -140c13 -70 1 -140 21 -210c22 -77 77 -140 154 -140s139 62 154 140c13 70 8 140 21 210c10 55 35 105 70 140M280 210v-210M155 770l107 107c7 -50 50 -93 107 -107" />
    <glyph glyph-name="Ydieresis" unicode="&#x178;" horiz-adv-x="560" 
d="M35 700c35 -35 59 -83 70 -140c13 -70 1 -140 21 -210c22 -77 77 -140 154 -140s139 62 154 140c13 70 8 140 21 210c10 55 35 105 70 140M280 210v-210M120 868h71c7 -36 -7 -79 -35 -108M298 868h72c7 -36 -7 -79 -36 -108" />
    <glyph glyph-name="Ygrave" unicode="&#x1ef2;" horiz-adv-x="560" 
d="M35 700c35 -35 59 -83 70 -140c13 -70 1 -140 21 -210c22 -77 77 -140 154 -140s139 62 154 140c13 70 8 140 21 210c10 55 35 105 70 140M280 210v-210M304 760c-64 -7 -121 43 -107 107h36" />
    <glyph glyph-name="Z" unicode="Z" horiz-adv-x="628" 
d="M37 561l72 139h455c-38 -139 -129 -264 -244 -350c-125 -93 -221 -206 -283 -350h422c76 0 134 67 139 139" />
    <glyph glyph-name="Zacute" unicode="&#x179;" horiz-adv-x="628" 
d="M37 561l72 139h455c-38 -139 -129 -264 -244 -350c-125 -93 -221 -206 -283 -350h422c76 0 134 67 139 139M311 877h36c14 -64 -43 -114 -107 -107" />
    <glyph glyph-name="Zcaron" unicode="&#x17d;" horiz-adv-x="628" 
d="M37 561l72 139h455c-38 -139 -129 -264 -244 -350c-125 -93 -221 -206 -283 -350h422c76 0 134 67 139 139M409 877c-57 -14 -100 -57 -107 -107l-107 107" />
    <glyph glyph-name="Zdotaccent" unicode="&#x17b;" horiz-adv-x="628" 
d="M37 561l72 139h455c-38 -139 -129 -264 -244 -350c-125 -93 -221 -206 -283 -350h422c76 0 134 67 139 139M265 868h72c7 -36 -7 -79 -36 -108" />
    <glyph glyph-name="a" unicode="a" 
d="M81 428c50 50 114 72 178 72c100 0 186 -50 214 -143s-20 -193 15 -286c11 -29 35 -50 57 -71M478 214c-64 43 -140 72 -219 72c-108 0 -214 -43 -214 -143c0 -93 107 -143 214 -143c86 0 164 29 229 71" />
    <glyph glyph-name="aacute" unicode="&#xe1;" 
d="M81 428c50 50 114 72 178 72c100 0 186 -50 214 -143s-20 -193 15 -286c11 -29 35 -50 57 -71M478 214c-64 43 -140 72 -219 72c-108 0 -214 -43 -214 -143c0 -93 107 -143 214 -143c86 0 164 29 229 71M271 710h36c14 -64 -43 -114 -107 -107" />
    <glyph glyph-name="abreve" unicode="&#x103;" 
d="M81 428c50 50 114 72 178 72c100 0 186 -50 214 -143s-20 -193 15 -286c11 -29 35 -50 57 -71M478 214c-64 43 -140 72 -219 72c-108 0 -214 -43 -214 -143c0 -93 107 -143 214 -143c86 0 164 29 229 71M150 710c0 -57 50 -108 107 -108s107 51 107 108" />
    <glyph glyph-name="acircumflex" unicode="&#xe2;" 
d="M81 428c50 50 114 72 178 72c100 0 186 -50 214 -143s-20 -193 15 -286c11 -29 35 -50 57 -71M478 214c-64 43 -140 72 -219 72c-108 0 -214 -43 -214 -143c0 -93 107 -143 214 -143c86 0 164 29 229 71M150 603l107 107c7 -50 50 -93 107 -107" />
    <glyph glyph-name="acute" unicode="&#xb4;" horiz-adv-x="189" 
d="M111 710h36c14 -64 -43 -114 -107 -107" />
    <glyph glyph-name="acutecomb" unicode="&#x301;" horiz-adv-x="189" 
d="M111 710h36c14 -64 -43 -114 -107 -107" />
    <glyph glyph-name="adieresis" unicode="&#xe4;" 
d="M81 428c50 50 114 72 178 72c100 0 186 -50 214 -143s-20 -193 15 -286c11 -29 35 -50 57 -71M478 214c-64 43 -140 72 -219 72c-108 0 -214 -43 -214 -143c0 -93 107 -143 214 -143c86 0 164 29 229 71M130 700h71c7 -36 -7 -79 -35 -108M308 700h72
c7 -36 -7 -79 -36 -108" />
    <glyph glyph-name="ae" unicode="&#xe6;" horiz-adv-x="929" 
d="M81 427c50 44 115 73 178 73c100 0 200 -51 215 -144c6 -36 0 -72 0 -107c1 -113 72 -216 180 -249c93 -28 192 0 250 72M474 249c0 129 94 238 215 251c120 13 223 -72 215 -180c-7 -91 -108 -152 -215 -143c-71 6 -142 36 -215 72c-64 35 -135 66 -215 71
c-99 6 -210 -42 -214 -143c-4 -105 101 -177 214 -177c100 0 191 39 255 110" />
    <glyph glyph-name="agrave" unicode="&#xe0;" 
d="M81 428c50 50 114 72 178 72c100 0 186 -50 214 -143s-20 -193 15 -286c11 -29 35 -50 57 -71M478 214c-64 43 -140 72 -219 72c-108 0 -214 -43 -214 -143c0 -93 107 -143 214 -143c86 0 164 29 229 71M309 593c-64 -7 -121 43 -107 107h36" />
    <glyph glyph-name="amacron" unicode="&#x101;" 
d="M81 428c50 50 114 72 178 72c100 0 186 -50 214 -143s-20 -193 15 -286c11 -29 35 -50 57 -71M478 214c-64 43 -140 72 -219 72c-108 0 -214 -43 -214 -143c0 -93 107 -143 214 -143c86 0 164 29 229 71M155 617h214" />
    <glyph glyph-name="ampersand" unicode="&#x26;" horiz-adv-x="720" 
d="M315 385c-112 0 -245 49 -245 147c0 112 119 168 245 168c132 0 235 -56 235 -160c0 -95 -122 -135 -235 -155c-126 -22 -280 -66 -280 -196c0 -112 112 -189 238 -189c161 0 282 89 302 260c0 -171 46 -260 140 -260" />
    <glyph glyph-name="aogonek" unicode="&#x105;" 
d="M81 428c50 50 114 72 178 72c100 0 186 -50 214 -143s-20 -193 15 -286c11 -29 35 -50 57 -71M478 214c-64 43 -140 72 -219 72c-108 0 -214 -43 -214 -143c0 -93 107 -143 214 -143c86 0 164 29 229 71M525 0c-36 -30 -62 -63 -72 -109c-9 -43 -2 -87 36 -107
c57 -30 115 15 109 72" />
    <glyph glyph-name="approxequal" unicode="&#x2248;" horiz-adv-x="559" 
d="M55 431c68 31 146 29 214 -2s147 -30 215 2M55 142c68 32 146 33 214 2s147 -34 215 -2" />
    <glyph glyph-name="aring" unicode="&#xe5;" 
d="M81 428c50 50 114 72 178 72c100 0 186 -50 214 -143s-20 -193 15 -286c11 -29 35 -50 57 -71M478 214c-64 43 -140 72 -219 72c-108 0 -214 -43 -214 -143c0 -93 107 -143 214 -143c86 0 164 29 229 71M254 710c-29 0 -54 -25 -54 -54s25 -54 54 -54s54 25 54 54
s-25 54 -54 54" />
    <glyph glyph-name="asciitilde" unicode="~" horiz-adv-x="529" 
d="M45 250c68 32 146 33 214 2s147 -34 215 -2" />
    <glyph glyph-name="asterisk" unicode="*" horiz-adv-x="589" 
d="M65 719c121 -122 307 -150 464 -72l-428 -285l214 428c-14 -178 36 -357 143 -500" />
    <glyph glyph-name="at" unicode="@" horiz-adv-x="826" 
d="M235 503c51 44 116 72 181 72c93 0 187 -58 216 -144c32 -94 -4 -195 14 -288c7 -36 28 -73 58 -73c63 0 72 145 72 259c0 212 -158 371 -350 371c-212 0 -381 -159 -381 -380c0 -230 149 -375 366 -375c84 0 160 29 224 71M644 287c-65 43 -149 71 -228 72
c-109 1 -217 -50 -217 -144c0 -101 108 -145 217 -145c79 0 158 22 230 73" />
    <glyph glyph-name="atilde" unicode="&#xe3;" 
d="M81 428c50 50 114 72 178 72c100 0 186 -50 214 -143s-20 -193 15 -286c11 -29 35 -50 57 -71M478 214c-64 43 -140 72 -219 72c-108 0 -214 -43 -214 -143c0 -93 107 -143 214 -143c86 0 164 29 229 71M150 617c0 43 36 71 71 57c29 -14 43 -47 72 -57
c34 -12 71 21 71 57" />
    <glyph glyph-name="b" unicode="b" horiz-adv-x="697" 
d="M40 786c36 -36 60 -87 71 -143c35 -179 -84 -379 22 -536c49 -72 143 -107 228 -107c150 0 287 107 286 250c-1 150 -129 256 -286 250c-121 -5 -237 -93 -273 -214" />
    <glyph glyph-name="backslash" unicode="\" horiz-adv-x="348" 
d="M263 -200l-198 990" />
    <glyph glyph-name="bar" unicode="|" horiz-adv-x="200" 
d="M100 700v-790" />
    <glyph glyph-name="braceleft" unicode="{" horiz-adv-x="466" 
d="M366 790h-107c-43 0 -72 -35 -72 -71v-323c0 -65 -50 -108 -107 -108c57 -7 107 -50 107 -107v-392c0 -43 29 -79 72 -79h107" />
    <glyph glyph-name="braceright" unicode="}" horiz-adv-x="466" 
d="M100 -290h107c43 0 72 36 72 79v392c0 57 50 100 107 107c-57 0 -107 43 -107 108v323c0 36 -29 71 -72 71h-107" />
    <glyph glyph-name="bracketleft" unicode="[" horiz-adv-x="359" 
d="M259 790h-108c-36 0 -71 -34 -71 -71v-938c0 -35 36 -71 71 -71h108" />
    <glyph glyph-name="bracketright" unicode="]" horiz-adv-x="359" 
d="M100 790h108c36 0 71 -34 71 -71v-938c0 -35 -36 -71 -71 -71h-108" />
    <glyph glyph-name="breve" unicode="&#x2d8;" horiz-adv-x="294" 
d="M40 710c0 -57 50 -108 107 -108s107 51 107 108" />
    <glyph glyph-name="brevecomb" unicode="&#x306;" horiz-adv-x="294" 
d="M40 710c0 -57 50 -108 107 -108s107 51 107 108" />
    <glyph glyph-name="brokenbar" unicode="&#xa6;" horiz-adv-x="200" 
d="M100 240v-330M100 700v-330" />
    <glyph glyph-name="bullet" unicode="&#x2022;" horiz-adv-x="298" 
d="M60 420h175c14 -84 -28 -168 -105 -210" />
    <glyph glyph-name="c" unicode="c" horiz-adv-x="540" 
d="M515 428c-64 58 -157 85 -249 72c-109 -15 -205 -105 -215 -214c-13 -136 79 -256 215 -286c92 -20 185 7 249 72" />
    <glyph glyph-name="cacute" unicode="&#x107;" horiz-adv-x="540" 
d="M515 428c-64 58 -157 85 -249 72c-109 -15 -205 -105 -215 -214c-13 -136 79 -256 215 -286c92 -20 185 7 249 72M281 710h36c14 -64 -43 -114 -107 -107" />
    <glyph glyph-name="caron" unicode="&#x2c7;" horiz-adv-x="294" 
d="M254 710c-57 -14 -100 -57 -107 -107l-107 107" />
    <glyph glyph-name="caroncomb" unicode="&#x30c;" horiz-adv-x="294" 
d="M254 710c-57 -14 -100 -57 -107 -107l-107 107" />
    <glyph glyph-name="ccaron" unicode="&#x10d;" horiz-adv-x="540" 
d="M515 428c-64 58 -157 85 -249 72c-109 -15 -205 -105 -215 -214c-13 -136 79 -256 215 -286c92 -20 185 7 249 72M394 710c-57 -14 -100 -57 -107 -107l-107 107" />
    <glyph glyph-name="ccedilla" unicode="&#xe7;" horiz-adv-x="540" 
d="M515 428c-64 58 -157 85 -249 72c-109 -15 -205 -105 -215 -214c-13 -136 79 -256 215 -286c92 -20 185 7 249 72M267 -4l-37 -72c27 11 51 11 73 0c25 -13 39 -43 35 -72c-6 -48 -57 -81 -108 -71" />
    <glyph glyph-name="cdotaccent" unicode="&#x10b;" horiz-adv-x="540" 
d="M515 428c-64 58 -157 85 -249 72c-109 -15 -205 -105 -215 -214c-13 -136 79 -256 215 -286c92 -20 185 7 249 72M240 700h72c7 -36 -7 -79 -36 -108" />
    <glyph glyph-name="cedilla" unicode="&#xb8;" horiz-adv-x="189" 
d="M77 0l-37 -72c27 11 51 11 73 0c25 -13 39 -43 35 -72c-6 -48 -57 -81 -108 -71" />
    <glyph glyph-name="cedillacomb" unicode="&#x327;" horiz-adv-x="189" 
d="M77 0l-37 -72c27 11 51 11 73 0c25 -13 39 -43 35 -72c-6 -48 -57 -81 -108 -71" />
    <glyph glyph-name="cent" unicode="&#xa2;" horiz-adv-x="543" 
d="M518 520c-65 56 -158 85 -252 71c-109 -16 -205 -108 -215 -215c-13 -136 79 -264 215 -287c95 -16 187 9 252 72M303 700v-761" />
    <glyph glyph-name="circumflex" unicode="&#x2c6;" horiz-adv-x="294" 
d="M40 603l107 107c7 -50 50 -93 107 -107" />
    <glyph glyph-name="circumflexcomb" unicode="&#x302;" horiz-adv-x="294" 
d="M40 603l107 107c7 -50 50 -93 107 -107" />
    <glyph glyph-name="colon" unicode=":" horiz-adv-x="236" 
d="M35 500h108c14 -58 -15 -115 -72 -144M35 192h108c14 -58 -15 -115 -72 -144" />
    <glyph glyph-name="comma" unicode="," horiz-adv-x="242" 
d="M65 47h108c14 -110 -7 -211 -72 -290" />
    <glyph glyph-name="commaaccentcomb" unicode="&#x326;" horiz-adv-x="154" 
d="M40 -81h72c7 -57 -7 -107 -36 -143" />
    <glyph glyph-name="commaturnedabovecomb" unicode="&#x312;" horiz-adv-x="154" 
d="M115 570h-72c-7 57 7 107 36 143" />
    <glyph glyph-name="copyright" unicode="&#xa9;" horiz-adv-x="793" 
d="M560 497c-58 46 -134 70 -204 58c-93 -16 -163 -87 -175 -174c-16 -113 64 -211 175 -235c72 -15 146 6 204 59M368 701c216 16 396 -163 379 -379c-15 -194 -187 -336 -379 -322c-176 13 -307 146 -322 322c-16 192 128 365 322 379" />
    <glyph glyph-name="currency" unicode="&#xa4;" horiz-adv-x="476" 
d="M239 500c-81 0 -145 -65 -145 -145c0 -81 64 -145 145 -145s144 64 144 145c0 80 -63 145 -144 145M134 455l-69 73M134 251l-69 -68M343 455l68 73M343 251l68 -68" />
    <glyph glyph-name="d" unicode="d" horiz-adv-x="702" 
d="M514 786c36 -36 59 -85 72 -143c41 -186 -71 -395 21 -572c11 -21 29 -50 50 -71M578 357c-57 93 -157 144 -264 143c-143 -1 -264 -107 -264 -250s136 -250 286 -250c92 0 185 50 250 121" />
    <glyph glyph-name="dagger" unicode="&#x2020;" horiz-adv-x="418" 
d="M209 790v-428M45 640h328" />
    <glyph glyph-name="daggerdbl" unicode="&#x2021;" horiz-adv-x="418" 
d="M209 790v-428M45 640h328M45 512h328" />
    <glyph glyph-name="dcaron" unicode="&#x10f;" horiz-adv-x="702" 
d="M514 786c36 -36 59 -85 72 -143c41 -186 -71 -395 21 -572c11 -21 29 -50 50 -71M578 357c-57 93 -157 144 -264 143c-143 -1 -264 -107 -264 -250s136 -250 286 -250c92 0 185 50 250 121M610 780h72c7 -57 -7 -107 -36 -143" />
    <glyph glyph-name="dcroat" unicode="&#x111;" horiz-adv-x="702" 
d="M514 786c36 -36 59 -85 72 -143c41 -186 -71 -395 21 -572c11 -21 29 -50 50 -71M578 357c-57 93 -157 144 -264 143c-143 -1 -264 -107 -264 -250s136 -250 286 -250c92 0 185 50 250 121M423 617h214" />
    <glyph glyph-name="degree" unicode="&#xb0;" horiz-adv-x="340" 
d="M160 790c-81 0 -145 -64 -145 -145c0 -82 64 -145 145 -145c82 0 145 63 145 145c0 81 -63 145 -145 145" />
    <glyph glyph-name="dieresis" unicode="&#xa8;" horiz-adv-x="332" 
d="M40 710h71c7 -36 -7 -79 -35 -108M218 710h72c7 -36 -7 -79 -36 -108" />
    <glyph glyph-name="dieresiscomb" unicode="&#x308;" horiz-adv-x="332" 
d="M40 700h71c7 -36 -7 -79 -35 -108M218 700h72c7 -36 -7 -79 -36 -108" />
    <glyph glyph-name="divide" unicode="&#xf7;" horiz-adv-x="528" 
d="M45 250h428M196 510h108c14 -58 -15 -115 -72 -144M196 104h108c14 -58 -15 -115 -72 -144" />
    <glyph glyph-name="dollar" unicode="$" horiz-adv-x="671" 
d="M595 596c-77 61 -175 103 -280 104c-132 1 -255 -78 -245 -197c9 -104 133 -142 245 -154c140 -15 300 -33 315 -161c16 -138 -137 -212 -315 -188c-106 14 -196 63 -280 140M350 805v-952" />
    <glyph glyph-name="dotaccent" unicode="&#x2d9;" horiz-adv-x="154" 
d="M40 710h72c7 -36 -7 -79 -36 -108" />
    <glyph glyph-name="dotaccentcomb" unicode="&#x307;" horiz-adv-x="154" 
d="M40 700h72c7 -36 -7 -79 -36 -108" />
    <glyph glyph-name="downArrow" unicode="&#x2193;" horiz-adv-x="589" 
d="M290 700v-700c-32 153 -121 286 -255 382M290 0c38 153 127 286 254 382" />
    <glyph glyph-name="e" unicode="e" horiz-adv-x="540" 
d="M515 72c-64 -65 -156 -92 -249 -72c-137 29 -227 150 -215 286c11 129 133 214 262 214c107 0 207 -64 202 -157c-5 -100 -114 -140 -228 -129c-79 8 -157 28 -236 72" />
    <glyph glyph-name="eacute" unicode="&#xe9;" horiz-adv-x="540" 
d="M515 72c-64 -65 -156 -92 -249 -72c-137 29 -227 150 -215 286c11 129 133 214 262 214c107 0 207 -64 202 -157c-5 -100 -114 -140 -228 -129c-79 8 -157 28 -236 72M291 710h36c14 -64 -43 -114 -107 -107" />
    <glyph glyph-name="ecaron" unicode="&#x11b;" horiz-adv-x="540" 
d="M515 72c-64 -65 -156 -92 -249 -72c-137 29 -227 150 -215 286c11 129 133 214 262 214c107 0 207 -64 202 -157c-5 -100 -114 -140 -228 -129c-79 8 -157 28 -236 72M384 710c-57 -14 -100 -57 -107 -107l-107 107" />
    <glyph glyph-name="ecircumflex" unicode="&#xea;" horiz-adv-x="540" 
d="M515 72c-64 -65 -156 -92 -249 -72c-137 29 -227 150 -215 286c11 129 133 214 262 214c107 0 207 -64 202 -157c-5 -100 -114 -140 -228 -129c-79 8 -157 28 -236 72M170 603l107 107c7 -50 50 -93 107 -107" />
    <glyph glyph-name="edieresis" unicode="&#xeb;" horiz-adv-x="540" 
d="M515 72c-64 -65 -156 -92 -249 -72c-137 29 -227 150 -215 286c11 129 133 214 262 214c107 0 207 -64 202 -157c-5 -100 -114 -140 -228 -129c-79 8 -157 28 -236 72M140 700h71c7 -36 -7 -79 -35 -108M318 700h72c7 -36 -7 -79 -36 -108" />
    <glyph glyph-name="edotaccent" unicode="&#x117;" horiz-adv-x="540" 
d="M515 72c-64 -65 -156 -92 -249 -72c-137 29 -227 150 -215 286c11 129 133 214 262 214c107 0 207 -64 202 -157c-5 -100 -114 -140 -228 -129c-79 8 -157 28 -236 72M240 700h72c7 -36 -7 -79 -36 -108" />
    <glyph glyph-name="egrave" unicode="&#xe8;" horiz-adv-x="540" 
d="M515 72c-64 -65 -156 -92 -249 -72c-137 29 -227 150 -215 286c11 129 133 214 262 214c107 0 207 -64 202 -157c-5 -100 -114 -140 -228 -129c-79 8 -157 28 -236 72M329 593c-64 -7 -121 43 -107 107h36" />
    <glyph glyph-name="eight" unicode="8" horiz-adv-x="671" 
d="M336 700c-126 0 -255 -64 -245 -175c9 -98 133 -140 245 -140c119 0 238 42 245 140c8 113 -112 175 -245 175M336 385c-133 0 -269 -48 -280 -175c-11 -126 133 -210 280 -210s286 77 280 203s-140 182 -280 182" />
    <glyph glyph-name="ellipsis" unicode="&#x2026;" horiz-adv-x="631" 
d="M247 52h108c14 -58 -15 -115 -72 -144M430 52h108c14 -58 -15 -115 -72 -144M65 52h108c14 -58 -15 -115 -72 -144" />
    <glyph glyph-name="emacron" unicode="&#x113;" horiz-adv-x="540" 
d="M515 72c-64 -65 -156 -92 -249 -72c-137 29 -227 150 -215 286c11 129 133 214 262 214c107 0 207 -64 202 -157c-5 -100 -114 -140 -228 -129c-79 8 -157 28 -236 72M170 617h214" />
    <glyph glyph-name="emdash" unicode="&#x2014;" horiz-adv-x="620" 
d="M60 265h500" />
    <glyph glyph-name="emptyset" unicode="&#x2205;" horiz-adv-x="564" 
d="M282 500c150 1 270 -129 250 -286c-16 -122 -129 -214 -250 -214c-129 0 -234 93 -250 214c-20 150 100 285 250 286M32 0l500 500" />
    <glyph glyph-name="endash" unicode="&#x2013;" horiz-adv-x="495" 
d="M60 265h375" />
    <glyph glyph-name="eng" unicode="&#x14b;" horiz-adv-x="590" 
d="M40 500c43 -43 64 -93 71 -143c14 -100 -20 -200 15 -285c12 -30 35 -58 57 -72M111 357c43 79 122 143 215 143c114 0 214 -71 214 -179c0 -135 19 -271 -15 -392c-24 -85 -64 -157 -128 -215" />
    <glyph glyph-name="eogonek" unicode="&#x119;" horiz-adv-x="540" 
d="M515 72c-64 -65 -156 -92 -249 -72c-137 29 -227 150 -215 286c11 129 133 214 262 214c107 0 207 -64 202 -157c-5 -100 -114 -140 -228 -129c-79 8 -157 28 -236 72M286 -6c-36 -30 -62 -63 -72 -109c-9 -43 -2 -87 36 -107c57 -30 115 15 109 72" />
    <glyph glyph-name="equal" unicode="=" horiz-adv-x="558" 
d="M55 428h428M55 143h428" />
    <glyph glyph-name="euro" unicode="&#x20ac;" horiz-adv-x="637" 
d="M620 630c-63 56 -140 75 -210 70c-166 -12 -280 -175 -280 -350c0 -168 112 -332 280 -350c70 -7 147 21 210 70M60 455h490M60 280h490" />
    <glyph glyph-name="exclam" unicode="!" horiz-adv-x="237" 
d="M25 790c36 -36 62 -86 72 -143c20 -115 -35 -245 14 -360c12 -29 36 -50 58 -71M61 124h108c14 -58 -15 -115 -72 -144" />
    <glyph glyph-name="exclamdown" unicode="&#xa1;" horiz-adv-x="237" 
d="M65 284c36 -36 62 -86 72 -143c20 -115 -35 -245 14 -360c12 -29 36 -50 58 -71M101 520h108c14 -58 -15 -115 -72 -144" />
    <glyph glyph-name="f" unicode="f" horiz-adv-x="523" 
d="M538 738c-65 58 -164 74 -246 41c-99 -40 -165 -140 -165 -246c0 -255 114 -527 -16 -740c-19 -32 -41 -66 -66 -83M45 368c66 25 140 16 206 0c65 -16 139 -25 205 0" />
    <glyph glyph-name="five" unicode="5" horiz-adv-x="590" 
d="M500 700h-455v-315c70 56 161 78 245 70c139 -13 251 -112 245 -245c-5 -119 -119 -210 -245 -210c-91 0 -182 35 -245 105" />
    <glyph glyph-name="four" unicode="4" horiz-adv-x="556" 
d="M180 700l-140 -490h420M404 350c35 -35 56 -84 56 -140c0 -42 -13 -91 0 -140c8 -30 28 -49 56 -70" />
    <glyph glyph-name="fraction" unicode="&#x2044;" 
d="M65 0l450 700" />
    <glyph glyph-name="g" unicode="g" horiz-adv-x="594" 
d="M290 500c-131 0 -253 -63 -253 -179c0 -115 122 -182 253 -182c128 0 249 67 249 182c0 116 -121 179 -249 179M440 464c51 8 93 49 99 108M183 249c-72 -43 -156 -74 -146 -146c14 -104 159 -71 289 -71c127 0 254 -50 248 -165c-6 -121 -148 -157 -284 -157
c-107 0 -223 28 -253 128c-25 83 22 174 109 190" />
    <glyph glyph-name="gbreve" unicode="&#x11f;" horiz-adv-x="594" 
d="M290 500c-131 0 -253 -63 -253 -179c0 -115 122 -182 253 -182c128 0 249 67 249 182c0 116 -121 179 -249 179M440 464c51 8 93 49 99 108M183 249c-72 -43 -156 -74 -146 -146c14 -104 159 -71 289 -71c127 0 254 -50 248 -165c-6 -121 -148 -157 -284 -157
c-107 0 -223 28 -253 128c-25 83 22 174 109 190M180 710c0 -57 50 -108 107 -108s107 51 107 108" />
    <glyph glyph-name="gcommaaccent" unicode="&#x123;" horiz-adv-x="594" 
d="M290 500c-131 0 -253 -63 -253 -179c0 -115 122 -182 253 -182c128 0 249 67 249 182c0 116 -121 179 -249 179M440 464c51 8 93 49 99 108M183 249c-72 -43 -156 -74 -146 -146c14 -104 159 -71 289 -71c127 0 254 -50 248 -165c-6 -121 -148 -157 -284 -157
c-107 0 -223 28 -253 128c-25 83 22 174 109 190M330 570h-72c-7 57 7 107 36 143" />
    <glyph glyph-name="gdotaccent" unicode="&#x121;" horiz-adv-x="594" 
d="M290 500c-131 0 -253 -63 -253 -179c0 -115 122 -182 253 -182c128 0 249 67 249 182c0 116 -121 179 -249 179M440 464c51 8 93 49 99 108M183 249c-72 -43 -156 -74 -146 -146c14 -104 159 -71 289 -71c127 0 254 -50 248 -165c-6 -121 -148 -157 -284 -157
c-107 0 -223 28 -253 128c-25 83 22 174 109 190M250 700h72c7 -36 -7 -79 -36 -108" />
    <glyph glyph-name="germandbls" unicode="&#xdf;" horiz-adv-x="512" 
d="M125 0c-42 21 -70 63 -70 105v350c0 140 58 245 182 245c84 0 165 -49 168 -140c3 -98 -98 -168 -210 -175c147 7 280 -77 280 -210c0 -140 -166 -223 -280 -140" />
    <glyph glyph-name="grave" unicode="`" horiz-adv-x="189" 
d="M149 603c-64 -7 -121 43 -107 107h36" />
    <glyph glyph-name="gravecomb" unicode="&#x300;" horiz-adv-x="189" 
d="M149 593c-64 -7 -121 43 -107 107h36" />
    <glyph glyph-name="greater" unicode="&#x3e;" horiz-adv-x="518" 
d="M55 500l428 -214l-428 -215" />
    <glyph glyph-name="greaterequal" unicode="&#x2265;" horiz-adv-x="518" 
d="M55 500l428 -214l-428 -215M55 0h428" />
    <glyph glyph-name="guillemetleft" unicode="&#xab;" horiz-adv-x="545" 
d="M480 500l-250 -250l250 -250M275 500l-250 -250l250 -250" />
    <glyph glyph-name="guillemetright" unicode="&#xbb;" horiz-adv-x="545" 
d="M65 0l250 250l-250 250M270 0l250 250l-250 250" />
    <glyph glyph-name="guilsinglleft" unicode="&#x2039;" horiz-adv-x="340" 
d="M275 500l-250 -250l250 -250" />
    <glyph glyph-name="guilsinglright" unicode="&#x203a;" horiz-adv-x="340" 
d="M65 0l250 250l-250 250" />
    <glyph glyph-name="h" unicode="h" horiz-adv-x="656" 
d="M40 786c36 -36 56 -86 71 -143c49 -186 -63 -393 22 -572c11 -23 28 -50 50 -71M109 357c43 86 124 143 217 143c100 0 180 -52 214 -143c35 -93 -13 -193 21 -286c11 -30 29 -50 50 -71" />
    <glyph glyph-name="hbar" unicode="&#x127;" horiz-adv-x="656" 
d="M40 786c36 -36 56 -86 71 -143c49 -186 -63 -393 22 -572c11 -23 28 -50 50 -71M109 357c43 86 124 143 217 143c100 0 180 -52 214 -143c35 -93 -13 -193 21 -286c11 -30 29 -50 50 -71M20 617h214" />
    <glyph glyph-name="hungarumlaut" unicode="&#x2dd;" horiz-adv-x="319" 
d="M111 710h36c14 -64 -43 -114 -107 -107M241 710h36c14 -64 -43 -114 -107 -107" />
    <glyph glyph-name="hungarumlautcomb" unicode="&#x30b;" horiz-adv-x="319" 
d="M111 710h36c14 -64 -43 -114 -107 -107M241 710h36c14 -64 -43 -114 -107 -107" />
    <glyph glyph-name="hyphen" unicode="-" horiz-adv-x="370" 
d="M60 265h250" />
    <glyph glyph-name="i" unicode="i" horiz-adv-x="274" 
d="M15 357l71 143c58 -14 73 -79 72 -143c-1 -93 -28 -193 14 -286c13 -29 36 -50 57 -71M122 647c29 43 36 93 36 143" />
    <glyph glyph-name="iacute" unicode="&#xed;" horiz-adv-x="274" 
d="M15 357l71 143c58 -14 73 -79 72 -143c-1 -93 -28 -193 14 -286c13 -29 36 -50 57 -71M131 710h36c14 -64 -43 -114 -107 -107" />
    <glyph glyph-name="icircumflex" unicode="&#xee;" horiz-adv-x="274" 
d="M15 357l71 143c58 -14 73 -79 72 -143c-1 -93 -28 -193 14 -286c13 -29 36 -50 57 -71M20 603l107 107c7 -50 50 -93 107 -107" />
    <glyph glyph-name="idieresis" unicode="&#xef;" horiz-adv-x="274" 
d="M15 357l71 143c58 -14 73 -79 72 -143c-1 -93 -28 -193 14 -286c13 -29 36 -50 57 -71M0 700h71c7 -36 -7 -79 -35 -108M178 700h72c7 -36 -7 -79 -36 -108" />
    <glyph glyph-name="idotaccent" horiz-adv-x="274" 
d="M15 357l71 143c58 -14 73 -79 72 -143c-1 -93 -28 -193 14 -286c13 -29 36 -50 57 -71M80 700h72c7 -36 -7 -79 -36 -108" />
    <glyph glyph-name="idotless" unicode="&#x131;" horiz-adv-x="274" 
d="M15 357l71 143c58 -14 73 -79 72 -143c-1 -93 -28 -193 14 -286c13 -29 36 -50 57 -71" />
    <glyph glyph-name="igrave" unicode="&#xec;" horiz-adv-x="274" 
d="M15 357l71 143c58 -14 73 -79 72 -143c-1 -93 -28 -193 14 -286c13 -29 36 -50 57 -71M179 593c-64 -7 -121 43 -107 107h36" />
    <glyph glyph-name="imacron" unicode="&#x12b;" horiz-adv-x="274" 
d="M15 357l71 143c58 -14 73 -79 72 -143c-1 -93 -28 -193 14 -286c13 -29 36 -50 57 -71M30 617h214" />
    <glyph glyph-name="infinity" unicode="&#x221e;" horiz-adv-x="957" 
d="M259 428c-107 22 -214 -64 -214 -178c0 -107 107 -195 214 -179c100 15 157 100 214 179c58 86 122 164 215 178c114 22 214 -64 214 -178c0 -107 -100 -193 -214 -179c-93 15 -157 100 -215 179c-57 86 -115 158 -214 178" />
    <glyph glyph-name="integral" unicode="&#x222b;" horiz-adv-x="253" 
d="M258 700c-18 -7 -42 -16 -61 -31c-47 -37 -54 -97 -60 -152c-19 -201 54 -427 -83 -577c-11 -12 -27 -24 -39 -30" />
    <glyph glyph-name="iogonek" unicode="&#x12f;" horiz-adv-x="274" 
d="M15 357l71 143c58 -14 73 -79 72 -143c-1 -93 -28 -193 14 -286c13 -29 36 -50 57 -71M122 647c29 43 36 93 36 143M229 0c-36 -30 -62 -63 -72 -109c-9 -43 -2 -87 36 -107c57 -30 115 15 109 72" />
    <glyph glyph-name="j" unicode="j" horiz-adv-x="232" 
d="M40 351l71 149c50 -28 71 -92 71 -149c0 -143 17 -285 -14 -427c-17 -78 -64 -150 -128 -214M147 648c28 42 35 92 35 142" />
    <glyph glyph-name="k" unicode="k" horiz-adv-x="644" 
d="M40 790c36 -36 60 -88 72 -144c41 -187 -77 -395 14 -574c12 -23 36 -50 58 -72M100 359c57 71 136 124 222 143c130 28 258 -28 251 -143s-150 -152 -287 -108c-67 21 -129 65 -186 108M286 251c50 -136 185 -237 328 -251" />
    <glyph glyph-name="kcommaaccent" unicode="&#x137;" horiz-adv-x="644" 
d="M40 790c36 -36 60 -88 72 -144c41 -187 -77 -395 14 -574c12 -23 36 -50 58 -72M100 359c57 71 136 124 222 143c130 28 258 -28 251 -143s-150 -152 -287 -108c-67 21 -129 65 -186 108M286 251c50 -136 185 -237 328 -251M260 -81h72c7 -57 -7 -107 -36 -143" />
    <glyph glyph-name="l" unicode="l" horiz-adv-x="229" 
d="M40 790c36 -36 59 -87 72 -143c42 -187 -78 -396 14 -575c12 -24 36 -50 58 -72" />
    <glyph glyph-name="lacute" unicode="&#x13a;" horiz-adv-x="229" 
d="M40 790c36 -36 59 -87 72 -143c42 -187 -78 -396 14 -575c12 -24 36 -50 58 -72M216 800h36c14 -64 -43 -114 -107 -107" />
    <glyph glyph-name="lcaron" unicode="&#x13e;" horiz-adv-x="229" 
d="M40 790c36 -36 59 -87 72 -143c42 -187 -78 -396 14 -575c12 -24 36 -50 58 -72M135 780h72c7 -57 -7 -107 -36 -143" />
    <glyph glyph-name="lcommaaccent" unicode="&#x13c;" horiz-adv-x="229" 
d="M40 790c36 -36 59 -87 72 -143c42 -187 -78 -396 14 -575c12 -24 36 -50 58 -72M75 -81h72c7 -57 -7 -107 -36 -143" />
    <glyph glyph-name="leftArrow" unicode="&#x2190;" horiz-adv-x="780" 
d="M745 350h-700c153 32 286 121 382 255M45 350c153 -38 286 -127 382 -254" />
    <glyph glyph-name="leftRightArrow" unicode="&#x2194;" horiz-adv-x="790" 
d="M490 605c64 -108 153 -197 255 -255h-700c108 58 197 147 255 255M490 96c64 102 153 191 255 254M300 96c-58 102 -147 191 -255 254" />
    <glyph glyph-name="less" unicode="&#x3c;" horiz-adv-x="518" 
d="M463 71l-428 215l428 214" />
    <glyph glyph-name="lessequal" unicode="&#x2264;" horiz-adv-x="518" 
d="M463 71l-428 215l428 214M463 0h-428" />
    <glyph glyph-name="logicalnot" unicode="&#xac;" horiz-adv-x="620" 
d="M60 265h500v-150" />
    <glyph glyph-name="lozenge" unicode="&#x25ca;" horiz-adv-x="515" 
d="M258 700l222 -350l-222 -350l-223 350" />
    <glyph glyph-name="lslash" unicode="&#x142;" horiz-adv-x="189" 
d="M-34 328l245 105M40 790c36 -36 59 -87 72 -143c42 -187 -78 -396 14 -575c12 -24 36 -50 58 -72" />
    <glyph glyph-name="m" unicode="m" horiz-adv-x="1013" 
d="M40 500c43 -36 62 -86 71 -143c14 -93 -20 -193 15 -286c11 -29 35 -50 57 -71M111 357c29 79 100 137 179 143c100 7 186 -50 214 -143s-20 -193 14 -286c11 -30 36 -50 58 -71M504 357c29 79 100 136 179 143c100 7 186 -50 214 -143s-20 -193 14 -286
c11 -30 36 -50 57 -71" />
    <glyph glyph-name="macron" unicode="&#xaf;" horiz-adv-x="294" 
d="M40 617h214" />
    <glyph glyph-name="macroncomb" unicode="&#x304;" horiz-adv-x="294" 
d="M40 617h214" />
    <glyph glyph-name="minus" unicode="&#x2212;" horiz-adv-x="528" 
d="M45 250h428" />
    <glyph glyph-name="multiply" unicode="&#xd7;" horiz-adv-x="538" 
d="M55 500l428 -429M483 500l-428 -429" />
    <glyph glyph-name="n" unicode="n" horiz-adv-x="656" 
d="M40 500c43 -36 62 -86 71 -143c14 -93 -20 -193 15 -286c11 -29 35 -50 57 -71M111 357c43 86 122 143 215 143c100 0 187 -49 214 -143c27 -93 -21 -193 14 -286c11 -29 36 -50 57 -71" />
    <glyph glyph-name="nacute" unicode="&#x144;" horiz-adv-x="656" 
d="M40 500c43 -36 62 -86 71 -143c14 -93 -20 -193 15 -286c11 -29 35 -50 57 -71M111 357c43 86 122 143 215 143c100 0 187 -49 214 -143c27 -93 -21 -193 14 -286c11 -29 36 -50 57 -71M301 710h36c14 -64 -43 -114 -107 -107" />
    <glyph glyph-name="ncaron" unicode="&#x148;" horiz-adv-x="656" 
d="M40 500c43 -36 62 -86 71 -143c14 -93 -20 -193 15 -286c11 -29 35 -50 57 -71M111 357c43 86 122 143 215 143c100 0 187 -49 214 -143c27 -93 -21 -193 14 -286c11 -29 36 -50 57 -71M399 710c-57 -14 -100 -57 -107 -107l-107 107" />
    <glyph glyph-name="ncommaaccent" unicode="&#x146;" horiz-adv-x="656" 
d="M40 500c43 -36 62 -86 71 -143c14 -93 -20 -193 15 -286c11 -29 35 -50 57 -71M111 357c43 86 122 143 215 143c100 0 187 -49 214 -143c27 -93 -21 -193 14 -286c11 -29 36 -50 57 -71M290 -81h72c7 -57 -7 -107 -36 -143" />
    <glyph glyph-name="nine" unicode="9" horiz-adv-x="607" 
d="M87 70c48 -63 133 -81 209 -70c153 22 246 181 246 349c0 170 -91 336 -246 351c-146 14 -264 -104 -244 -245c16 -112 126 -187 244 -176c105 10 192 78 234 176" />
    <glyph glyph-name="northEastArrow" unicode="&#x2197;" horiz-adv-x="600" 
d="M90 500c162 -27 319 4 450 90l-495 -495M450 140c-22 158 9 315 90 450" />
    <glyph glyph-name="northWestArrow" unicode="&#x2196;" horiz-adv-x="600" 
d="M555 95l-495 495c131 -86 288 -117 450 -90M60 590c81 -135 112 -292 90 -450" />
    <glyph glyph-name="notequal" unicode="&#x2260;" horiz-adv-x="558" 
d="M55 428h428M55 143h428M126 0l286 571" />
    <glyph glyph-name="ntilde" unicode="&#xf1;" horiz-adv-x="656" 
d="M40 500c43 -36 62 -86 71 -143c14 -93 -20 -193 15 -286c11 -29 35 -50 57 -71M111 357c43 86 122 143 215 143c100 0 187 -49 214 -143c27 -93 -21 -193 14 -286c11 -29 36 -50 57 -71M185 617c0 43 36 71 71 57c29 -14 43 -47 72 -57c34 -12 71 21 71 57" />
    <glyph glyph-name="numbersign" unicode="#" horiz-adv-x="694" 
d="M247 700l-115 -700M537 700l-116 -700M91 498h538M45 208h538" />
    <glyph glyph-name="o" unicode="o" horiz-adv-x="604" 
d="M302 500c150 0 270 -129 250 -286c-16 -122 -129 -214 -250 -214c-129 0 -236 93 -250 214c-17 150 100 286 250 286" />
    <glyph glyph-name="oacute" unicode="&#xf3;" horiz-adv-x="604" 
d="M302 500c150 0 270 -129 250 -286c-16 -122 -129 -214 -250 -214c-129 0 -236 93 -250 214c-17 150 100 286 250 286M291 710h36c14 -64 -43 -114 -107 -107" />
    <glyph glyph-name="ocircumflex" unicode="&#xf4;" horiz-adv-x="604" 
d="M302 500c150 0 270 -129 250 -286c-16 -122 -129 -214 -250 -214c-129 0 -236 93 -250 214c-17 150 100 286 250 286M180 603l107 107c7 -50 50 -93 107 -107" />
    <glyph glyph-name="odieresis" unicode="&#xf6;" horiz-adv-x="604" 
d="M302 500c150 0 270 -129 250 -286c-16 -122 -129 -214 -250 -214c-129 0 -236 93 -250 214c-17 150 100 286 250 286M150 700h71c7 -36 -7 -79 -35 -108M328 700h72c7 -36 -7 -79 -36 -108" />
    <glyph glyph-name="oe" unicode="&#x153;" horiz-adv-x="1044" 
d="M302 500c150 0 270 -129 250 -286c-16 -122 -129 -214 -250 -214c-129 0 -236 93 -250 214c-17 150 100 286 250 286M1019 72c-64 -65 -156 -92 -249 -72c-137 29 -227 150 -215 286c11 129 133 214 262 214c107 0 207 -64 202 -157c-5 -100 -114 -140 -228 -129
c-79 8 -157 28 -236 72" />
    <glyph glyph-name="ogonek" unicode="&#x2db;" horiz-adv-x="229" 
d="M116 0c-36 -30 -62 -63 -72 -109c-9 -43 -2 -87 36 -107c57 -30 115 15 109 72" />
    <glyph glyph-name="ogonekcomb" unicode="&#x328;" horiz-adv-x="229" 
d="M116 0c-36 -30 -62 -63 -72 -109c-9 -43 -2 -87 36 -107c57 -30 115 15 109 72" />
    <glyph glyph-name="ograve" unicode="&#xf2;" horiz-adv-x="604" 
d="M302 500c150 0 270 -129 250 -286c-16 -122 -129 -214 -250 -214c-129 0 -236 93 -250 214c-17 150 100 286 250 286M334 593c-64 -7 -121 43 -107 107h36" />
    <glyph glyph-name="ohungarumlaut" unicode="&#x151;" horiz-adv-x="604" 
d="M302 500c150 0 270 -129 250 -286c-16 -122 -129 -214 -250 -214c-129 0 -236 93 -250 214c-17 150 100 286 250 286M231 710h36c14 -64 -43 -114 -107 -107M361 710h36c14 -64 -43 -114 -107 -107" />
    <glyph glyph-name="omacron" unicode="&#x14d;" horiz-adv-x="604" 
d="M302 500c150 0 270 -129 250 -286c-16 -122 -129 -214 -250 -214c-129 0 -236 93 -250 214c-17 150 100 286 250 286M170 617h214" />
    <glyph glyph-name="one" unicode="1" horiz-adv-x="435" 
d="M40 490l210 210c35 -35 59 -85 70 -140c33 -161 -62 -336 14 -490c11 -23 35 -49 56 -70h-280" />
    <glyph glyph-name="oslash" unicode="&#xf8;" horiz-adv-x="564" 
d="M302 500c150 0 270 -129 250 -286c-16 -122 -129 -214 -250 -214c-129 0 -236 93 -250 214c-17 150 100 286 250 286M383 730l-198 -990" />
    <glyph glyph-name="otilde" unicode="&#xf5;" horiz-adv-x="604" 
d="M302 500c150 0 270 -129 250 -286c-16 -122 -129 -214 -250 -214c-129 0 -236 93 -250 214c-17 150 100 286 250 286M165 617c0 43 36 71 71 57c29 -14 43 -47 72 -57c34 -12 71 21 71 57" />
    <glyph glyph-name="p" unicode="p" horiz-adv-x="662" 
d="M40 500c36 -43 60 -94 71 -143c42 -193 -77 -400 15 -571c15 -28 35 -57 57 -72M111 357c43 86 136 143 229 143c164 0 286 -135 271 -286c-13 -128 -121 -214 -250 -214c-100 0 -200 50 -250 143" />
    <glyph glyph-name="paragraph" unicode="&#xb6;" horiz-adv-x="415" 
d="M270 0v790c-100 0 -210 -140 -210 -290h97M340 0v790" />
    <glyph glyph-name="parenleft" unicode="(" horiz-adv-x="359" 
d="M259 790c-115 -158 -179 -344 -179 -544c0 -193 64 -379 179 -536" />
    <glyph glyph-name="parenright" unicode=")" horiz-adv-x="359" 
d="M100 790c115 -158 179 -344 179 -544c0 -193 -64 -379 -179 -536" />
    <glyph glyph-name="partialdiff" unicode="&#x2202;" horiz-adv-x="557" 
d="M481 199c-9 109 -93 195 -203 215c-104 18 -205 -36 -237 -137c-40 -121 33 -255 164 -277c145 -26 267 108 296 267c29 166 8 354 -140 416c-74 31 -160 21 -219 -32" />
    <glyph glyph-name="percent" unicode="%" horiz-adv-x="545" 
d="M45 0l450 700M154 700c-69 0 -109 -74 -109 -155c0 -78 40 -156 109 -156c72 0 109 78 109 156c0 81 -37 155 -109 155M386 311c-69 0 -109 -74 -109 -155c0 -78 40 -156 109 -156c72 0 109 78 109 156c0 81 -37 155 -109 155" />
    <glyph glyph-name="period" unicode="." horiz-adv-x="261" 
d="M65 52h108c14 -58 -15 -115 -72 -144" />
    <glyph glyph-name="periodcentered" unicode="&#xb7;" horiz-adv-x="271" 
d="M80 322h108c14 -58 -15 -115 -72 -144" />
    <glyph glyph-name="perthousand" unicode="&#x2030;" horiz-adv-x="813" 
d="M45 0l450 700M154 700c-69 0 -109 -74 -109 -155c0 -78 40 -156 109 -156c72 0 109 78 109 156c0 81 -37 155 -109 155M386 311c-69 0 -109 -74 -109 -155c0 -78 40 -156 109 -156c72 0 109 78 109 156c0 81 -37 155 -109 155M654 311c-69 0 -109 -74 -109 -155
c0 -78 40 -156 109 -156c72 0 109 78 109 156c0 81 -37 155 -109 155" />
    <glyph glyph-name="plus" unicode="+" horiz-adv-x="528" 
d="M259 464v-428M45 250h428" />
    <glyph glyph-name="plusminus" unicode="&#xb1;" horiz-adv-x="538" 
d="M259 600v-428M45 386h428M45 80h428" />
    <glyph glyph-name="product" unicode="&#x220f;" horiz-adv-x="580" 
d="M170 -90v790M410 -90v790M40 700h500" />
    <glyph glyph-name="q" unicode="q" horiz-adv-x="670" 
d="M625 500c-43 -36 -71 -93 -72 -144c-1 -72 0 -143 0 -215c0 -122 -22 -252 21 -359c12 -30 29 -58 51 -72M553 356c-50 87 -151 144 -252 144c-136 0 -251 -115 -251 -251c0 -137 115 -252 251 -252c101 0 202 50 252 144" />
    <glyph glyph-name="question" unicode="?" horiz-adv-x="530" 
d="M15 647c43 86 129 143 226 143c155 0 270 -130 205 -251c-58 -108 -310 -86 -287 -252c5 -36 36 -64 72 -71M159 124h107c15 -58 -14 -115 -71 -144" />
    <glyph glyph-name="questiondown" unicode="&#xbf;" horiz-adv-x="530" 
d="M515 -147c-43 -86 -129 -143 -226 -143c-155 0 -270 130 -205 251c58 108 310 86 287 252c-5 36 -36 64 -72 71M232 520h107c15 -58 -14 -115 -71 -144" />
    <glyph glyph-name="quotedbl" unicode="&#x22;" horiz-adv-x="394" 
d="M15 790h108c14 -110 -7 -211 -72 -290M217 790h108c14 -110 -7 -211 -72 -290" />
    <glyph glyph-name="quotedblbase" unicode="&#x201e;" horiz-adv-x="436" 
d="M259 47h108c14 -110 -7 -211 -72 -290M65 47h108c14 -110 -7 -211 -72 -290" />
    <glyph glyph-name="quotedblleft" unicode="&#x201c;" horiz-adv-x="479" 
d="M394 500h-108c-14 110 7 211 72 290M192 500h-108c-14 110 7 211 72 290" />
    <glyph glyph-name="quotedblright" unicode="&#x201d;" horiz-adv-x="479" 
d="M85 790h108c14 -110 -7 -211 -72 -290M287 790h108c14 -110 -7 -211 -72 -290" />
    <glyph glyph-name="quoteleft" unicode="&#x2018;" horiz-adv-x="277" 
d="M192 500h-108c-14 110 7 211 72 290" />
    <glyph glyph-name="quoteright" unicode="&#x2019;" horiz-adv-x="277" 
d="M85 790h108c14 -110 -7 -211 -72 -290" />
    <glyph glyph-name="quotesinglbase" unicode="&#x201a;" horiz-adv-x="242" 
d="M65 47h108c14 -110 -7 -211 -72 -290" />
    <glyph glyph-name="quotesingle" unicode="'" horiz-adv-x="192" 
d="M15 790h108c14 -110 -7 -211 -72 -290" />
    <glyph glyph-name="r" unicode="r" horiz-adv-x="539" 
d="M40 500c43 -36 63 -86 71 -143c13 -93 -20 -193 15 -286c11 -29 35 -50 57 -71M111 357c50 79 129 134 215 143c64 7 128 0 178 -36" />
    <glyph glyph-name="racute" unicode="&#x155;" horiz-adv-x="539" 
d="M40 500c43 -36 63 -86 71 -143c13 -93 -20 -193 15 -286c11 -29 35 -50 57 -71M111 357c50 79 129 134 215 143c64 7 128 0 178 -36M261 710h36c14 -64 -43 -114 -107 -107" />
    <glyph glyph-name="radical" unicode="&#x221a;" horiz-adv-x="538" 
d="M25 0l150 -290l198 1080h150" />
    <glyph glyph-name="rcaron" unicode="&#x159;" horiz-adv-x="539" 
d="M40 500c43 -36 63 -86 71 -143c13 -93 -20 -193 15 -286c11 -29 35 -50 57 -71M111 357c50 79 129 134 215 143c64 7 128 0 178 -36M344 710c-57 -14 -100 -57 -107 -107l-107 107" />
    <glyph glyph-name="rcommaaccent" unicode="&#x157;" horiz-adv-x="539" 
d="M40 500c43 -36 63 -86 71 -143c13 -93 -20 -193 15 -286c11 -29 35 -50 57 -71M111 357c50 79 129 134 215 143c64 7 128 0 178 -36M130 -81h72c7 -57 -7 -107 -36 -143" />
    <glyph glyph-name="registered" unicode="&#xae;" horiz-adv-x="503" 
d="M200 385c-14 6 -23 20 -23 33v186h78c39 0 76 -23 76 -61c0 -42 -41 -70 -88 -70c-24 0 -45 8 -66 22M243 473c16 -39 49 -72 88 -88M250 302c109 0 198 89 198 198c0 111 -89 200 -198 200c-111 0 -200 -89 -200 -200c0 -109 89 -198 200 -198" />
    <glyph glyph-name="rightArrow" unicode="&#x2192;" horiz-adv-x="780" 
d="M353 605c96 -134 229 -223 382 -255h-700M353 96c96 127 229 216 382 254" />
    <glyph glyph-name="ring" unicode="&#x2da;" horiz-adv-x="188" 
d="M94 710c-29 0 -54 -25 -54 -54s25 -54 54 -54s54 25 54 54s-25 54 -54 54" />
    <glyph glyph-name="ringcomb" unicode="&#x30a;" horiz-adv-x="188" 
d="M94 710c-29 0 -54 -25 -54 -54s25 -54 54 -54s54 25 54 54s-25 54 -54 54" />
    <glyph glyph-name="s" unicode="s" horiz-adv-x="509" 
d="M448 428c-57 58 -135 72 -214 72c-100 0 -191 -57 -178 -143s128 -95 214 -107c107 -15 220 -50 214 -143c-5 -71 -93 -107 -178 -107c-100 0 -207 14 -286 86" />
    <glyph glyph-name="sacute" unicode="&#x15b;" horiz-adv-x="509" 
d="M448 428c-57 58 -135 72 -214 72c-100 0 -191 -57 -178 -143s128 -95 214 -107c107 -15 220 -50 214 -143c-5 -71 -93 -107 -178 -107c-100 0 -207 14 -286 86M261 710h36c14 -64 -43 -114 -107 -107" />
    <glyph glyph-name="scaron" unicode="&#x161;" horiz-adv-x="509" 
d="M448 428c-57 58 -135 72 -214 72c-100 0 -191 -57 -178 -143s128 -95 214 -107c107 -15 220 -50 214 -143c-5 -71 -93 -107 -178 -107c-100 0 -207 14 -286 86M364 710c-57 -14 -100 -57 -107 -107l-107 107" />
    <glyph glyph-name="scedilla" unicode="&#x15f;" horiz-adv-x="509" 
d="M448 428c-57 58 -135 72 -214 72c-100 0 -191 -57 -178 -143s128 -95 214 -107c107 -15 220 -50 214 -143c-5 -71 -93 -107 -178 -107c-100 0 -207 14 -286 86M258 1l-37 -72c27 11 51 11 73 0c25 -13 39 -43 35 -72c-6 -48 -57 -81 -108 -71" />
    <glyph glyph-name="scommaaccent" unicode="&#x219;" horiz-adv-x="509" 
d="M448 428c-57 58 -135 72 -214 72c-100 0 -191 -57 -178 -143s128 -95 214 -107c107 -15 220 -50 214 -143c-5 -71 -93 -107 -178 -107c-100 0 -207 14 -286 86M220 -81h72c7 -57 -7 -107 -36 -143" />
    <glyph glyph-name="section" unicode="&#xa7;" horiz-adv-x="590" 
d="M293 434c-116 0 -225 -61 -225 -136c0 -83 122 -100 218 -122c116 -27 249 -48 249 -133c0 -82 -120 -133 -215 -133c-94 0 -210 34 -285 116M286 176c116 0 225 46 225 121c0 84 -123 117 -218 137c-116 27 -249 48 -249 133c0 80 119 133 215 133
c95 0 211 -34 286 -116" />
    <glyph glyph-name="semicolon" unicode=";" horiz-adv-x="257" 
d="M65 500h108c14 -58 -15 -115 -72 -144M65 47h108c14 -110 -7 -211 -72 -290" />
    <glyph glyph-name="seven" unicode="7" horiz-adv-x="550" 
d="M45 700h455c-28 -126 -94 -244 -175 -350c-75 -98 -119 -224 -105 -350M115 350h350" />
    <glyph glyph-name="six" unicode="6" horiz-adv-x="572" 
d="M485 630c-49 63 -132 88 -210 70c-156 -35 -210 -217 -210 -385c0 -161 98 -315 245 -315c133 0 228 119 210 245c-15 104 -105 175 -210 175c-112 0 -210 -70 -238 -175" />
    <glyph glyph-name="slash" unicode="/" horiz-adv-x="348" 
d="M283 790l-198 -990" />
    <glyph glyph-name="southEastArrow" unicode="&#x2198;" horiz-adv-x="600" 
d="M450 500c-26 -163 5 -320 90 -451l-495 495M91 140c157 22 314 -9 449 -91" />
    <glyph glyph-name="southWestArrow" unicode="&#x2199;" horiz-adv-x="575" 
d="M540 544l-495 -495c85 131 116 288 90 451M45 49c135 82 292 113 449 91" />
    <glyph glyph-name="space" unicode=" " horiz-adv-x="250" 
 />
    <glyph glyph-name="sterling" unicode="&#xa3;" horiz-adv-x="422" 
d="M407 668c-51 45 -127 55 -191 32c-77 -28 -127 -108 -127 -191c0 -153 60 -312 -13 -445c-14 -25 -32 -45 -51 -64h382M25 318c51 26 108 12 159 0s108 -19 159 0" />
    <glyph glyph-name="summation" unicode="&#x2211;" horiz-adv-x="495" 
d="M440 -90h-400l200 395l-200 395h400" />
    <glyph glyph-name="t" unicode="t" horiz-adv-x="442" 
d="M45 642c27 -44 51 -94 57 -142c18 -145 -56 -308 27 -430c24 -35 58 -60 95 -70c65 -18 128 -7 178 34M102 500h300" />
    <glyph glyph-name="tbar" unicode="&#x167;" horiz-adv-x="402" 
d="M25 285h255M45 642c27 -44 51 -94 57 -142c18 -145 -56 -308 27 -430c24 -35 58 -60 95 -70c65 -18 128 -7 178 34M102 500h300" />
    <glyph glyph-name="tcaron" unicode="&#x165;" horiz-adv-x="442" 
d="M45 642c27 -44 51 -94 57 -142c18 -145 -56 -308 27 -430c24 -35 58 -60 95 -70c65 -18 128 -7 178 34M102 500h300M324 710c-57 -14 -100 -57 -107 -107l-107 107" />
    <glyph glyph-name="tcedilla" unicode="&#x163;" horiz-adv-x="442" 
d="M45 642c27 -44 51 -94 57 -142c18 -145 -56 -308 27 -430c24 -35 58 -60 95 -70c65 -18 128 -7 178 34M102 500h300M204 0l-37 -72c27 11 51 11 73 0c25 -13 39 -43 35 -72c-6 -48 -57 -81 -108 -71" />
    <glyph glyph-name="tcommaaccent" unicode="&#x21b;" horiz-adv-x="442" 
d="M45 642c27 -44 51 -94 57 -142c18 -145 -56 -308 27 -430c24 -35 58 -60 95 -70c65 -18 128 -7 178 34M102 500h300M170 -81h72c7 -57 -7 -107 -36 -143" />
    <glyph glyph-name="thorn" unicode="&#xfe;" horiz-adv-x="654" 
d="M40 700c35 -42 57 -91 70 -140c70 -260 -118 -541 15 -780c14 -25 34 -49 56 -70M121 341c41 85 123 144 214 149c161 9 285 -126 267 -288c-13 -119 -119 -211 -246 -211c-105 0 -211 49 -267 141" />
    <glyph glyph-name="three" unicode="3" horiz-adv-x="555" 
d="M45 595c56 63 126 100 210 105c105 6 206 -42 210 -140c6 -133 -161 -175 -315 -175c175 0 350 -56 350 -210c0 -98 -105 -175 -210 -175c-91 0 -182 35 -245 105" />
    <glyph glyph-name="tilde" unicode="&#x2dc;" horiz-adv-x="294" 
d="M40 617c0 43 36 71 71 57c29 -14 43 -47 72 -57c34 -12 71 21 71 57" />
    <glyph glyph-name="tildecomb" unicode="&#x303;" horiz-adv-x="294" 
d="M40 617c0 43 36 71 71 57c29 -14 43 -47 72 -57c34 -12 71 21 71 57" />
    <glyph glyph-name="trademark" unicode="&#x2122;" horiz-adv-x="1415" 
d="M35 630c21 42 56 70 105 70h175h175c42 0 91 -28 105 -70M315 700v-700M660 700c56 7 112 -23 140 -70l210 -350l210 350c31 52 84 77 140 70M730 690v-585c0 -42 28 -84 70 -105M1290 691v-586c0 -42 28 -84 70 -105" />
    <glyph glyph-name="two" unicode="2" horiz-adv-x="620" 
d="M50 560c49 91 140 140 245 140s210 -70 210 -175c0 -112 -112 -174 -210 -245c-102 -74 -189 -168 -245 -280h385c70 0 133 70 140 140" />
    <glyph glyph-name="u" unicode="u" horiz-adv-x="621" 
d="M40 500c21 -43 36 -93 36 -143c0 -71 -21 -143 0 -214c26 -87 114 -143 214 -143c93 0 173 64 209 143M468 500c22 -43 33 -93 36 -143c5 -93 -27 -193 14 -286c13 -29 29 -50 58 -71" />
    <glyph glyph-name="uacute" unicode="&#xfa;" horiz-adv-x="621" 
d="M40 500c21 -43 36 -93 36 -143c0 -71 -21 -143 0 -214c26 -87 114 -143 214 -143c93 0 173 64 209 143M468 500c22 -43 33 -93 36 -143c5 -93 -27 -193 14 -286c13 -29 29 -50 58 -71M261 710h36c14 -64 -43 -114 -107 -107" />
    <glyph glyph-name="ucircumflex" unicode="&#xfb;" horiz-adv-x="621" 
d="M40 500c21 -43 36 -93 36 -143c0 -71 -21 -143 0 -214c26 -87 114 -143 214 -143c93 0 173 64 209 143M468 500c22 -43 33 -93 36 -143c5 -93 -27 -193 14 -286c13 -29 29 -50 58 -71M140 603l107 107c7 -50 50 -93 107 -107" />
    <glyph glyph-name="udieresis" unicode="&#xfc;" horiz-adv-x="621" 
d="M40 500c21 -43 36 -93 36 -143c0 -71 -21 -143 0 -214c26 -87 114 -143 214 -143c93 0 173 64 209 143M468 500c22 -43 33 -93 36 -143c5 -93 -27 -193 14 -286c13 -29 29 -50 58 -71M110 700h71c7 -36 -7 -79 -35 -108M288 700h72c7 -36 -7 -79 -36 -108" />
    <glyph glyph-name="ugrave" unicode="&#xf9;" horiz-adv-x="621" 
d="M40 500c21 -43 36 -93 36 -143c0 -71 -21 -143 0 -214c26 -87 114 -143 214 -143c93 0 173 64 209 143M468 500c22 -43 33 -93 36 -143c5 -93 -27 -193 14 -286c13 -29 29 -50 58 -71M299 593c-64 -7 -121 43 -107 107h36" />
    <glyph glyph-name="uhungarumlaut" unicode="&#x171;" horiz-adv-x="621" 
d="M40 500c21 -43 36 -93 36 -143c0 -71 -21 -143 0 -214c26 -87 114 -143 214 -143c93 0 173 64 209 143M468 500c22 -43 33 -93 36 -143c5 -93 -27 -193 14 -286c13 -29 29 -50 58 -71M196 710h36c14 -64 -43 -114 -107 -107M326 710h36c14 -64 -43 -114 -107 -107z
" />
    <glyph glyph-name="umacron" unicode="&#x16b;" horiz-adv-x="621" 
d="M40 500c21 -43 36 -93 36 -143c0 -71 -21 -143 0 -214c26 -87 114 -143 214 -143c93 0 173 64 209 143M468 500c22 -43 33 -93 36 -143c5 -93 -27 -193 14 -286c13 -29 29 -50 58 -71M130 617h214" />
    <glyph glyph-name="underscore" unicode="_" horiz-adv-x="370" 
d="M60 -45h250" />
    <glyph glyph-name="uogonek" unicode="&#x173;" horiz-adv-x="621" 
d="M40 500c21 -43 36 -93 36 -143c0 -71 -21 -143 0 -214c26 -87 114 -143 214 -143c93 0 173 64 209 143M468 500c22 -43 33 -93 36 -143c5 -93 -27 -193 14 -286c13 -29 29 -50 58 -71M261 0c-36 -30 -62 -63 -72 -109c-9 -43 -2 -87 36 -107c57 -30 115 15 109 72" />
    <glyph glyph-name="upArrow" unicode="&#x2191;" horiz-adv-x="589" 
d="M35 318c134 96 223 229 255 382v-700M544 318c-127 96 -216 229 -254 382" />
    <glyph glyph-name="upDownArrow" unicode="&#x2195;" horiz-adv-x="599" 
d="M45 445c108 64 197 153 255 255v-700c-58 108 -147 197 -255 255M554 445c-102 64 -191 153 -254 255M554 255c-102 -58 -191 -147 -254 -255" />
    <glyph glyph-name="uring" unicode="&#x16f;" horiz-adv-x="621" 
d="M40 500c21 -43 36 -93 36 -143c0 -71 -21 -143 0 -214c26 -87 114 -143 214 -143c93 0 173 64 209 143M468 500c22 -43 33 -93 36 -143c5 -93 -27 -193 14 -286c13 -29 29 -50 58 -71M244 710c-29 0 -54 -25 -54 -54s25 -54 54 -54s54 25 54 54s-25 54 -54 54" />
    <glyph glyph-name="v" unicode="v" horiz-adv-x="570" 
d="M35 500l179 -500c71 -7 139 18 178 71c63 86 51 193 71 286c12 58 36 107 72 143" />
    <glyph glyph-name="w" unicode="w" horiz-adv-x="856" 
d="M35 500l179 -500c78 7 127 71 142 143c16 78 40 152 76 216M392 500l143 -500c57 0 110 26 143 71c63 86 51 193 71 286c12 57 36 107 72 143" />
    <glyph glyph-name="wacute" unicode="&#x1e83;" horiz-adv-x="856" 
d="M35 500l179 -500c78 7 127 71 142 143c16 78 40 152 76 216M392 500l143 -500c57 0 110 26 143 71c63 86 51 193 71 286c12 57 36 107 72 143M401 710h36c14 -64 -43 -114 -107 -107" />
    <glyph glyph-name="wcircumflex" unicode="&#x175;" horiz-adv-x="856" 
d="M35 500l179 -500c78 7 127 71 142 143c16 78 40 152 76 216M392 500l143 -500c57 0 110 26 143 71c63 86 51 193 71 286c12 57 36 107 72 143M280 603l107 107c7 -50 50 -93 107 -107" />
    <glyph glyph-name="wdieresis" unicode="&#x1e85;" horiz-adv-x="856" 
d="M35 500l179 -500c78 7 127 71 142 143c16 78 40 152 76 216M392 500l143 -500c57 0 110 26 143 71c63 86 51 193 71 286c12 57 36 107 72 143M255 700h71c7 -36 -7 -79 -35 -108M433 700h72c7 -36 -7 -79 -36 -108" />
    <glyph glyph-name="wgrave" unicode="&#x1e81;" horiz-adv-x="856" 
d="M35 500l179 -500c78 7 127 71 142 143c16 78 40 152 76 216M392 500l143 -500c57 0 110 26 143 71c63 86 51 193 71 286c12 57 36 107 72 143M429 593c-64 -7 -121 43 -107 107h36" />
    <glyph glyph-name="x" unicode="x" horiz-adv-x="570" 
d="M35 500c121 -22 220 -114 250 -236c30 -123 128 -221 250 -264M535 500c-129 0 -235 -100 -250 -236c-15 -134 -114 -243 -250 -264" />
    <glyph glyph-name="y" unicode="y" horiz-adv-x="537" 
d="M35 500c21 -49 31 -101 36 -144c9 -79 8 -150 36 -215c43 -101 143 -158 251 -144M502 500c-50 -172 -101 -338 -144 -503c-29 -115 -93 -215 -179 -287" />
    <glyph glyph-name="yacute" unicode="&#xfd;" horiz-adv-x="537" 
d="M35 500c21 -49 31 -101 36 -144c9 -79 8 -150 36 -215c43 -101 143 -158 251 -144M502 500c-50 -172 -101 -338 -144 -503c-29 -115 -93 -215 -179 -287M261 710h36c14 -64 -43 -114 -107 -107" />
    <glyph glyph-name="ycircumflex" unicode="&#x177;" horiz-adv-x="537" 
d="M35 500c21 -49 31 -101 36 -144c9 -79 8 -150 36 -215c43 -101 143 -158 251 -144M502 500c-50 -172 -101 -338 -144 -503c-29 -115 -93 -215 -179 -287M140 603l107 107c7 -50 50 -93 107 -107" />
    <glyph glyph-name="ydieresis" unicode="&#xff;" horiz-adv-x="537" 
d="M35 500c21 -49 31 -101 36 -144c9 -79 8 -150 36 -215c43 -101 143 -158 251 -144M502 500c-50 -172 -101 -338 -144 -503c-29 -115 -93 -215 -179 -287M120 700h71c7 -36 -7 -79 -35 -108M298 700h72c7 -36 -7 -79 -36 -108" />
    <glyph glyph-name="yen" unicode="&#xa5;" horiz-adv-x="520" 
d="M15 700c35 -35 59 -83 70 -140c13 -70 1 -140 21 -210c22 -77 77 -140 154 -140s139 62 154 140c13 70 8 140 21 210c10 55 35 105 70 140M260 210v-210M85 210h350M85 105h350" />
    <glyph glyph-name="ygrave" unicode="&#x1ef3;" horiz-adv-x="537" 
d="M35 500c21 -49 31 -101 36 -144c9 -79 8 -150 36 -215c43 -101 143 -158 251 -144M502 500c-50 -172 -101 -338 -144 -503c-29 -115 -93 -215 -179 -287M299 593c-64 -7 -121 43 -107 107h36" />
    <glyph glyph-name="z" unicode="z" horiz-adv-x="586" 
d="M59 357l72 143h400c-50 -100 -129 -179 -236 -250c-96 -64 -186 -143 -250 -250h393c71 0 114 79 107 143" />
    <glyph glyph-name="zacute" unicode="&#x17a;" horiz-adv-x="586" 
d="M59 357l72 143h400c-50 -100 -129 -179 -236 -250c-96 -64 -186 -143 -250 -250h393c71 0 114 79 107 143M291 710h36c14 -64 -43 -114 -107 -107" />
    <glyph glyph-name="zcaron" unicode="&#x17e;" horiz-adv-x="586" 
d="M59 357l72 143h400c-50 -100 -129 -179 -236 -250c-96 -64 -186 -143 -250 -250h393c71 0 114 79 107 143M394 710c-57 -14 -100 -57 -107 -107l-107 107" />
    <glyph glyph-name="zdotaccent" unicode="&#x17c;" horiz-adv-x="586" 
d="M59 357l72 143h400c-50 -100 -129 -179 -236 -250c-96 -64 -186 -143 -250 -250h393c71 0 114 79 107 143M240 700h72c7 -36 -7 -79 -36 -108" />
    <glyph glyph-name="zero" unicode="0" horiz-adv-x="621" 
d="M310 700c-154 0 -245 -167 -245 -349c0 -176 91 -351 245 -351c162 0 246 175 246 351c0 182 -84 349 -246 349" />
  </font>
</defs>
</svg>
